<?xml version="1.0" encoding="utf-8"?>
<!-- Generator: Adobe Illustrator 13.0.1, SVG Export Plug-In . SVG Version: 6.00 Build 14948)  -->
<!DOCTYPE svg PUBLIC "-//W3C//DTD SVG 1.1//EN" "http://www.w3.org/Graphics/SVG/1.1/DTD/svg11.dtd">
<svg version="1.1" id="Слой_1" xmlns="http://www.w3.org/2000/svg" xmlns:xlink="http://www.w3.org/1999/xlink" x="0px" y="0px"
	 width="29.723px" height="23.648px" viewBox="0 0 29.723 23.648" enable-background="new 0 0 29.723 23.648" xml:space="preserve">
<g>
	<g>
		<path fill="#DC965A" d="M21.484,2.518c1.343,0,2.462,0,3.682,0c1.986,0,3.878-0.192,4.382,1.406
			c0.349,1.104,0.079,2.933,0.079,4.229c0,2.753,0,5.434,0,8.452c0,1.39,0.176,3.395-0.157,4.066
			c-0.382,0.777-1.555,1.019-2.738,1.098c-1.229,0.083-2.725-0.231-3.835,0c-0.623,0.131-1.316,0.771-2.11,1.096
			c-0.923,0.379-2.036,0.781-3.286,0.783c-2.174,0.002-3.792-0.974-5.322-1.879c-2.504,0-5.527,0-8.295,0
			c-1.804,0-3.186-0.039-3.679-1.252c-0.319-0.784-0.156-2.724-0.156-4.147c0-2.915,0-5.519,0-8.53c0-2.883-0.361-5.497,2.583-5.319
			c0.179-0.266,0.022-0.86,0.076-1.253c1.174,0,2.348,0,3.521,0c0.162,0.278,0.04,0.846,0.079,1.252c1.903,0,3.81,0,5.713,0
			c0.627-0.617,0.249-2.135,1.486-2.429c0.871-0.208,2.234,0,3.678,0c1.049,0,2.71-0.238,3.364,0.235
			C21.304,0.878,20.968,1.942,21.484,2.518z M14.754,7.84c-2.109,0.793-4.369,3.037-4.696,5.947c-0.331,2.961,0.83,4.979,2.192,6.34
			c1.437,1.437,3.44,2.39,6.104,2.113c3.473-0.359,6.599-3.392,6.574-7.514c-0.017-3.026-1.896-5.373-3.757-6.417
			c-1.063-0.597-2.793-1.02-4.382-0.861C16.006,7.525,15.368,7.609,14.754,7.84z M2.937,12.535c0,0.718,0,1.779,0,2.74
			c0,2.052-0.427,5.215,1.565,4.538c1.083-0.368,0.704-3.368,0.704-4.934c0-1.771,0.317-4.684-0.313-5.318
			c-0.33-0.332-0.921-0.237-0.938-0.234C2.691,9.514,2.937,11.113,2.937,12.535z"/>
		<path fill="#DC965A" d="M16.79,9.561c4.387-0.544,7.813,4.257,5.008,8.296c-0.442,0.636-1.44,1.467-2.271,1.8
			c-3.271,1.313-7.426-0.905-7.354-5.009c0.028-1.666,0.745-2.813,1.409-3.521C14.266,10.392,15.372,9.737,16.79,9.561z
			 M19.293,17.779c2.364,0.048,3.522-3.021,2.113-4.854C21.74,15.396,20.715,16.841,19.293,17.779z"/>
	</g>
</g>
</svg>
