<?xml version="1.0" encoding="utf-8"?>
<!-- Generator: Adobe Illustrator 13.0.1, SVG Export Plug-In . SVG Version: 6.00 Build 14948)  -->
<!DOCTYPE svg PUBLIC "-//W3C//DTD SVG 1.1//EN" "http://www.w3.org/Graphics/SVG/1.1/DTD/svg11.dtd">
<svg version="1.1" id="Слой_1" xmlns="http://www.w3.org/2000/svg" xmlns:xlink="http://www.w3.org/1999/xlink" x="0px" y="0px"
	 width="50.454px" height="35.843px" viewBox="0 0 50.454 35.843" style="enable-background:new 0 0 50.454 35.843;"
	 xml:space="preserve">
<g>
	<g>
		<path style="fill:#808080;" d="M50.454,20.843c0,8.25-6.75,15-15,15H15.698c-8.25,0-15-6.75-15-15v-5.145c0-8.25,6.75-15,15-15
			h19.756c8.25,0,15,6.75,15,15V20.843z"/>
	</g>
	<g>
		<path style="fill:#CCCCCC;" d="M49.756,20.145c0,8.25-6.75,15-15,15H15c-8.25,0-15-6.75-15-15V15C0,6.75,6.75,0,15,0h19.756
			c8.25,0,15,6.75,15,15V20.145z"/>
	</g>
</g>
</svg>
