<?xml version="1.0" encoding="utf-8"?>
<!-- Generator: Adobe Illustrator 13.0.1, SVG Export Plug-In . SVG Version: 6.00 Build 14948)  -->
<!DOCTYPE svg PUBLIC "-//W3C//DTD SVG 1.1//EN" "http://www.w3.org/Graphics/SVG/1.1/DTD/svg11.dtd">
<svg version="1.1" id="Слой_1" xmlns="http://www.w3.org/2000/svg" xmlns:xlink="http://www.w3.org/1999/xlink" x="0px" y="0px"
	 width="128.59px" height="45.754px" viewBox="0 0 128.59 45.754" enable-background="new 0 0 128.59 45.754" xml:space="preserve">
<pattern  x="-521.205" y="472.377" width="72.001" height="71.999" patternUnits="userSpaceOnUse" id="Новый_образец_узора_1" viewBox="6.517 -100.346 72.001 71.999" overflow="visible">
	<g>
		<polygon fill="none" points="78.518,-28.347 6.517,-28.347 6.517,-100.346 78.518,-100.346 		"/>
		<polygon fill="#FFB700" points="32.188,-80.478 1.458,-85.194 1.614,-86.211 32.345,-81.495 		"/>
		<polygon fill="#FFB700" points="81.353,-91.759 50.622,-96.476 50.778,-97.492 81.509,-92.776 		"/>
		<polygon fill="#FFB700" points="77.567,-107.81 52.03,-90.075 51.444,-90.921 76.98,-108.655 		"/>
		<polygon fill="#FFB700" points="37.425,-51.276 9.944,-65.819 10.427,-66.729 37.907,-52.186 		"/>
		<polygon fill="#FFB700" points="81.919,-46.231 54.396,-60.694 54.874,-61.604 82.397,-47.142 		"/>
		<polygon fill="#FFB700" points="79.456,-73.484 65.327,-101.18 66.244,-101.646 80.373,-73.952 		"/>
		<polygon fill="#FFB700" points="60.144,-78.406 45.862,-50.79 44.948,-51.264 59.228,-78.879 		"/>
		<polygon fill="#FFB700" points="79.135,-89.686 66.415,-61.316 65.477,-61.737 78.194,-90.106 		"/>
		<polygon fill="#FFB700" points="35.981,-55.451 23.263,-27.081 22.323,-27.502 35.042,-55.872 		"/>
		<polygon fill="#FFB700" points="76.968,-101.769 64.248,-73.399 63.31,-73.82 76.027,-102.189 		"/>
		<polygon fill="#FFB700" points="50.663,-64.309 63.753,-36.107 62.82,-35.675 49.729,-63.875 		"/>
		<polygon fill="#FFB700" points="12.472,-43.104 32.946,-19.706 32.171,-19.028 11.696,-42.426 		"/>
		<polygon fill="#FFB700" points="42.597,-52.983 62.885,-29.423 62.105,-28.752 41.817,-52.312 		"/>
		<polygon fill="#FFB700" points="12.468,-36.718 16.411,-67.557 17.432,-67.428 13.49,-36.586 		"/>
		<polygon fill="#FFB700" points="31.292,-81.913 42.671,-52.98 41.714,-52.603 30.333,-81.536 		"/>
		<polygon fill="#FFB700" points="11.331,-77.325 34.231,-56.298 33.536,-55.54 10.634,-76.566 		"/>
		<polygon fill="#FFB700" points="17.11,-59.466 32.942,-32.709 32.058,-32.185 16.224,-58.942 		"/>
		<polygon fill="#FFB700" points="16.548,-73.818 5.062,-44.93 4.106,-45.308 15.591,-74.199 		"/>
		<polygon fill="#FFB700" points="17.019,-91.688 33.917,-65.588 33.054,-65.029 16.155,-91.127 		"/>
		<polygon fill="#FFB700" points="60.732,-71.547 89.876,-60.711 89.518,-59.747 60.374,-70.581 		"/>
		<polygon fill="#FFB700" points="10.341,-103.187 39.142,-91.477 38.755,-90.524 9.952,-102.232 		"/>
		<polygon fill="#FFB700" points="45.642,-41.522 74.147,-53.933 74.558,-52.989 46.052,-40.578 		"/>
		<polygon fill="#FFB700" points="53.091,-82.187 81.893,-70.477 81.505,-69.524 52.702,-81.232 		"/>
		<polygon fill="#FFB700" points="20.579,-78.78 38.132,-104.441 38.981,-103.859 21.429,-78.198 		"/>
		<polygon fill="#FFB700" points="49.696,-67.735 79.936,-60.514 79.697,-59.514 49.456,-66.734 		"/>
		<polygon fill="#FFB700" points="1.55,-54.176 32.216,-49.051 32.046,-48.035 1.38,-53.16 		"/>
		<polygon fill="#FFB700" points="2.245,-39.776 30.759,-27.38 30.349,-26.437 1.836,-38.831 		"/>
		<polygon fill="#FFB700" points="46.931,-93.023 73.13,-76.28 72.574,-75.414 46.376,-92.155 		"/>
		<polygon fill="#FFB700" points="35.751,-59.277 64.552,-47.568 64.165,-46.615 35.362,-58.323 		"/>
		<polygon fill="#FFB700" points="55.944,-31.246 76.686,-54.41 77.452,-53.724 56.714,-30.561 		"/>
		<polygon fill="#FFB700" points="0.401,-89.97 30.306,-98.477 30.587,-97.486 0.683,-88.979 		"/>
		<polygon fill="#FFB700" points="42.151,-33.97 72.057,-42.477 72.337,-41.486 42.433,-32.979 		"/>
		<polygon fill="#FFB700" points="22.901,-76.72 52.806,-85.227 53.087,-84.236 23.183,-75.729 		"/>
		<polygon fill="#FFB700" points="29.538,-45.619 56.23,-29.677 55.702,-28.793 29.009,-44.734 		"/>
		<polygon fill="#FFB700" points="23.593,-61.08 54.351,-65.62 54.501,-64.602 23.743,-60.061 		"/>
		<polygon fill="#FFB700" points="39.745,-53.111 46.63,-22.792 45.626,-22.564 38.741,-52.884 		"/>
		<polygon fill="#FFB700" points="63.093,-55.383 59.554,-86.272 60.577,-86.39 64.115,-55.501 		"/>
		<polygon fill="#FFB700" points="48.679,-60.032 31.972,-86.253 32.839,-86.807 49.548,-60.586 		"/>
		<polygon fill="#FFB700" points="71.255,-75.749 54.548,-101.97 55.415,-102.523 72.123,-76.303 		"/>
		<polygon fill="#FFB700" points="29.396,-75.205 43.522,-102.9 42.606,-103.367 28.478,-75.673 		"/>
		<polygon fill="#FFB700" points="3.853,-80.865 17.979,-108.561 17.063,-109.027 2.935,-81.333 		"/>
		<polygon fill="#FFB700" points="67.384,-52.656 81.665,-25.04 82.578,-25.514 68.298,-53.13 		"/>
		<polygon fill="#FFB700" points="45.954,-107.889 39.677,-77.438 40.685,-77.23 46.962,-107.681 		"/>
		<polygon fill="#FFB700" points="63.261,-82.657 34.458,-70.947 34.847,-69.995 63.647,-81.703 		"/>
		<polygon fill="#FFB700" points="71.935,-26.633 75.473,-57.522 74.449,-57.64 70.91,-26.751 		"/>
		<polygon fill="#FFB700" points="31.726,-64.156 8.522,-43.465 7.837,-44.232 31.042,-64.924 		"/>
		<polygon fill="#FFB700" points="53.011,-51.416 29.806,-30.726 29.122,-31.493 52.325,-52.185 		"/>
		<polygon fill="#FFB700" points="27.665,-45.646 0.501,-30.523 0,-31.423 27.165,-46.545 		"/>
		<polygon fill="#FFB700" points="40.747,-29.555 13.226,-44.017 13.704,-44.928 41.226,-30.466 		"/>
		<polygon fill="#FFB700" points="80.646,-41.262 53.481,-26.14 52.981,-27.039 80.146,-42.161 		"/>
		<polygon fill="#FFB700" points="51.165,-100.646 24.001,-85.523 23.501,-86.423 50.665,-101.545 		"/>
		<polygon fill="#FFB700" points="15.688,-76.843 9.716,-107.354 10.726,-107.551 16.698,-77.04 		"/>
		<polygon fill="#FFB700" points="50.921,-68.69 57.669,-99.039 58.673,-98.815 51.925,-68.467 		"/>
		<polygon fill="#FFB700" points="19.456,-41.223 26.204,-71.57 27.21,-71.347 20.462,-40.998 		"/>
		<polygon fill="#FFB700" points="18.581,-72.884 25.329,-103.232 26.335,-103.009 19.587,-72.66 		"/>
		<polygon fill="#FFB700" points="77.567,-35.811 52.03,-18.075 51.444,-18.921 76.98,-36.655 		"/>
		<polygon fill="#FFB700" points="79.456,-1.485 65.327,-29.181 66.244,-29.647 80.373,-1.952 		"/>
		<polygon fill="#FFB700" points="76.968,-28.369 64.248,0 63.31,-0.421 76.027,-28.79 		"/>
		<polygon fill="#FFB700" points="10.341,-31.187 39.142,-19.478 38.755,-18.524 9.952,-30.232 		"/>
		<polygon fill="#FFB700" points="20.579,-6.78 38.132,-32.442 38.981,-31.86 21.429,-6.198 		"/>
		<polygon fill="#FFB700" points="71.255,-3.749 54.548,-29.97 55.415,-30.523 72.123,-4.303 		"/>
		<polygon fill="#FFB700" points="29.396,-3.206 43.522,-30.901 42.606,-31.368 28.478,-3.673 		"/>
		<polygon fill="#FFB700" points="3.853,-8.865 17.979,-36.561 17.063,-37.027 2.935,-9.334 		"/>
		<polygon fill="#FFB700" points="45.954,-35.89 39.677,-5.439 40.685,-5.231 46.962,-35.682 		"/>
		<polygon fill="#FFB700" points="51.165,-28.646 24.001,-13.523 23.501,-14.423 50.665,-29.545 		"/>
		<polygon fill="#FFB700" points="15.688,-4.843 9.716,-35.354 10.726,-35.551 16.698,-5.04 		"/>
		<polygon fill="#FFB700" points="18.581,-0.885 25.329,-31.232 26.335,-31.01 19.587,-0.66 		"/>
		<polygon fill="#FFB700" points="43.581,-64.634 50.329,-94.982 51.335,-94.759 44.587,-64.41 		"/>
		<polygon fill="#FFB700" points="74.116,-66.655 50.913,-45.965 50.228,-46.731 73.432,-67.423 		"/>
		<polygon fill="#FFB700" points="32.935,-98.776 9.73,-78.085 9.046,-78.853 32.251,-99.544 		"/>
		<polygon fill="#FFB700" points="4.283,-56.463 11.634,-86.673 12.632,-86.431 5.284,-56.221 		"/>
		<polygon fill="#FFB700" points="104.188,-80.478 73.457,-85.194 73.614,-86.211 104.344,-81.495 		"/>
		<polygon fill="#FFB700" points="88.548,-73.818 77.061,-44.93 76.106,-45.308 87.591,-74.199 		"/>
		<polygon fill="#FFB700" points="73.549,-54.176 104.215,-49.051 104.045,-48.035 73.381,-53.16 		"/>
		<polygon fill="#FFB700" points="74.245,-39.776 102.76,-27.38 102.348,-26.437 73.836,-38.831 		"/>
		<polygon fill="#FFB700" points="72.401,-89.97 102.307,-98.477 102.587,-97.486 72.683,-88.979 		"/>
		<polygon fill="#FFB700" points="75.853,-80.865 89.98,-108.561 89.063,-109.027 74.935,-81.333 		"/>
		<polygon fill="#FFB700" points="99.665,-45.646 72.501,-30.523 72.001,-31.423 99.165,-46.545 		"/>
		<polygon fill="#FFB700" points="76.284,-56.463 83.634,-86.673 84.632,-86.431 77.285,-56.221 		"/>
	</g>
</pattern>
<path fill="#CCCCCC" d="M128.59,45.754V20.138C128.59,9.062,120.875,0,111.445,0h-94.3C7.716,0,0,9.062,0,20.138v25.616H128.59z"/>
<path fill="url(#Новый_образец_узора_1)" d="M127.733,20.038c0-9.43-7.611-17.146-16.916-17.146H17.775
	c-9.305,0-16.918,7.715-16.918,17.146v25.716h126.876V20.038z"/>
</svg>
