<?xml version="1.0" encoding="utf-8"?>
<!-- Generator: Adobe Illustrator 13.0.1, SVG Export Plug-In . SVG Version: 6.00 Build 14948)  -->
<!DOCTYPE svg PUBLIC "-//W3C//DTD SVG 1.1//EN" "http://www.w3.org/Graphics/SVG/1.1/DTD/svg11.dtd">
<svg version="1.1" id="Слой_1" xmlns="http://www.w3.org/2000/svg" xmlns:xlink="http://www.w3.org/1999/xlink" x="0px" y="0px"
	 width="56.17px" height="39.254px" viewBox="0 0 56.17 39.254" enable-background="new 0 0 56.17 39.254" xml:space="preserve">
<path fill="#FFFFFF" stroke="#DC965A" d="M55.67,38.486c0,0-45.226-3-54.888,0c1.61-4.828,1.932-31.595,0-36.583
	c25.443-3.159,54.888,0,54.888,0V38.486z"/>
<g>
	<g>
		<path fill="#DC965A" d="M34.271,10.999c1.225,0,2.248,0,3.358,0c1.815,0,3.541-0.174,4,1.286c0.317,1.007,0.072,2.676,0.072,3.859
			c0,2.513,0,4.959,0,7.713c0,1.271,0.159,3.1-0.144,3.716c-0.35,0.709-1.42,0.928-2.5,1.002c-1.121,0.073-2.486-0.214-3.5,0
			c-0.57,0.116-1.205,0.7-1.931,0.999c-0.839,0.345-1.856,0.713-2.998,0.714c-1.985,0.003-3.462-0.888-4.859-1.713
			c-2.286,0-5.045,0-7.572,0c-1.646,0-2.906-0.037-3.358-1.146c-0.292-0.717-0.143-2.484-0.143-3.785c0-2.66,0-5.039,0-7.788
			c0-2.631-0.33-5.018,2.358-4.858c0.165-0.24,0.023-0.783,0.071-1.143c1.072,0,2.143,0,3.214,0
			c0.147,0.256,0.037,0.772,0.072,1.143c1.737,0,3.476,0,5.215,0c0.572-0.563,0.228-1.946,1.357-2.215c0.795-0.19,2.041,0,3.356,0
			c0.958,0,2.476-0.219,3.072,0.215C34.106,9.501,33.799,10.473,34.271,10.999z M28.128,15.856
			c-1.926,0.725-3.988,2.772-4.287,5.431c-0.302,2.701,0.757,4.545,2.001,5.785c1.311,1.311,3.144,2.181,5.571,1.929
			c3.169-0.326,6.021-3.095,6.001-6.856c-0.017-2.764-1.729-4.905-3.431-5.858c-0.969-0.543-2.549-0.929-4-0.786
			C29.271,15.57,28.688,15.646,28.128,15.856z M17.34,20.145c0,0.653,0,1.623,0,2.498c0,1.875-0.389,4.765,1.43,4.146
			c0.988-0.336,0.643-3.074,0.643-4.501c0-1.618,0.292-4.276-0.286-4.857c-0.301-0.303-0.841-0.217-0.856-0.215
			C17.115,17.385,17.34,18.846,17.34,20.145z"/>
		<path fill="#DC965A" d="M29.987,17.429c4.004-0.497,7.133,3.885,4.57,7.571c-0.404,0.582-1.314,1.34-2.072,1.645
			c-2.984,1.198-6.777-0.826-6.714-4.572c0.026-1.521,0.681-2.565,1.287-3.214C27.682,18.187,28.692,17.588,29.987,17.429z
			 M32.271,24.93c2.16,0.045,3.219-2.759,1.93-4.43C34.503,22.756,33.569,24.073,32.271,24.93z"/>
	</g>
</g>
<path fill="#DC965A" d="M53.426,3.734l-9.505,5.94v0.898L53.83,4.38L53.426,3.734z M3.102,4.747l9.431,5.867V9.717L3.503,4.1
	L3.102,4.747z M2.724,36.32l9.809-6.131v-0.897L2.32,35.675L2.724,36.32z M43.921,29.244v0.896l9.671,6.018l0.402-0.646
	L43.921,29.244z"/>
</svg>
