<?xml version="1.0" encoding="utf-8"?>
<!-- Generator: Adobe Illustrator 13.0.1, SVG Export Plug-In . SVG Version: 6.00 Build 14948)  -->
<!DOCTYPE svg PUBLIC "-//W3C//DTD SVG 1.1//EN" "http://www.w3.org/Graphics/SVG/1.1/DTD/svg11.dtd">
<svg version="1.1" id="Слой_1" xmlns="http://www.w3.org/2000/svg" xmlns:xlink="http://www.w3.org/1999/xlink" x="0px" y="0px"
	 width="16.445px" height="16.444px" viewBox="0 0 16.445 16.444" style="enable-background:new 0 0 16.445 16.444;"
	 xml:space="preserve">
<g>
	<path style="fill:#CCCCCC;" d="M13.019,0H3.425C1.542,0,0,1.541,0,3.426v9.592c0,1.885,1.542,3.426,3.425,3.426h9.594
		c1.885,0,3.426-1.541,3.426-3.426V3.426C16.445,1.541,14.904,0,13.019,0z"/>
	<path style="fill:#EAEBEB;" d="M14.464,14.464c0.537-0.537,0.871-1.278,0.871-2.094V4.073c0-0.816-0.334-1.558-0.871-2.095
		L8.221,8.221L14.464,14.464z"/>
	<path style="fill:#3C3C3D;" d="M1.979,14.464c0.537,0.537,1.278,0.871,2.093,0.871h8.299c0.815,0,1.556-0.334,2.093-0.87
		L8.221,8.222L1.979,14.464z"/>
	<path style="fill:#C0C1C3;" d="M1.979,1.979l6.242,6.242l6.243-6.243c-0.537-0.537-1.277-0.87-2.093-0.87H4.073
		C3.258,1.109,2.517,1.442,1.979,1.979z"/>
	<path style="fill:#7F8082;" d="M1.979,1.98c-0.538,0.537-0.87,1.278-0.87,2.093v8.297c0,0.816,0.333,1.557,0.871,2.095l6.242-6.242
		L1.979,1.98z"/>
</g>
</svg>
