<?xml version="1.0" encoding="utf-8"?>
<!-- Generator: Adobe Illustrator 13.0.1, SVG Export Plug-In . SVG Version: 6.00 Build 14948)  -->
<!DOCTYPE svg PUBLIC "-//W3C//DTD SVG 1.1//EN" "http://www.w3.org/Graphics/SVG/1.1/DTD/svg11.dtd">
<svg version="1.1" id="Слой_1" xmlns="http://www.w3.org/2000/svg" xmlns:xlink="http://www.w3.org/1999/xlink" x="0px" y="0px"
	 width="28.003px" height="27.534px" viewBox="0 0 28.003 27.534" style="enable-background:new 0 0 28.003 27.534;"
	 xml:space="preserve">
<g>
	<polygon style="fill:#FFFFFF;" points="16.586,25.014 15.091,22.521 15.79,19.628 19.678,17.234 24.068,15.239 26.562,15.039 
		27.659,17.434 25.464,25.813 22.572,27.01 18.881,27.01 	"/>
	<path style="fill:#298ECE;" d="M13.899,17.083c0-0.351,0.051-0.688,0.144-1.01l-0.116-0.398c0,0,0.525-0.687,0.97-1.354
		c0.445-0.666,0.606-1.778,0.606-1.778s0.931-0.485,1.354-1.899S16.696,8.46,16.696,8.46s0.263-0.809,0.121-4.123
		c-0.142-3.314-3.556-3.153-3.556-3.153s-0.85-1.051-2.507-1.172c-1.657-0.122-3.759,0.585-4.85,3.375S5.843,8.419,5.843,8.419
		S5.298,8.662,5.602,10.42c0.302,1.758,1.313,2.041,1.313,2.041s0,0.242,0.505,1.556c0.505,1.314,1.187,1.83,1.187,1.83l-0.568,1.34
		c0,0-0.243,0.364-2.757,0.932c-2.514,0.568-4.948,2.434-5.266,5.15c-0.319,2.718,4.252,4.168,10.579,4.168
		c1.441,0,2.868-0.1,4.21-0.251c-0.563-0.644-0.905-1.483-0.905-2.402V17.083z M25.252,14.332h-7.701
		c-1.513,0-2.749,1.237-2.749,2.751v7.701c0,1.514,1.236,2.75,2.749,2.75h7.701c1.514,0,2.751-1.236,2.751-2.75v-7.701
		C28.003,15.569,26.766,14.332,25.252,14.332z M21.672,26.479l-6.045-4.684l1.572-2.029l3.726,2.886l4.136-7.128l2.221,1.287
		L21.672,26.479z"/>
</g>
</svg>
