<?xml version="1.0" encoding="utf-8"?>
<!-- Generator: Adobe Illustrator 13.0.1, SVG Export Plug-In . SVG Version: 6.00 Build 14948)  -->
<!DOCTYPE svg PUBLIC "-//W3C//DTD SVG 1.1//EN" "http://www.w3.org/Graphics/SVG/1.1/DTD/svg11.dtd">
<svg version="1.1" id="Слой_1" xmlns="http://www.w3.org/2000/svg" xmlns:xlink="http://www.w3.org/1999/xlink" x="0px" y="0px"
	 width="28.003px" height="27.534px" viewBox="0 0 28.003 27.534" style="enable-background:new 0 0 28.003 27.534;"
	 xml:space="preserve">
<g>
	<polygon style="fill:#FFFFFF;" points="16.587,25.014 15.091,22.521 15.79,19.628 19.679,17.234 24.068,15.239 26.562,15.039 
		27.66,17.434 25.464,25.813 22.572,27.01 18.882,27.01 	"/>
	<path style="fill:#CCCCCC;" d="M13.899,17.083c0-0.351,0.051-0.688,0.144-1.01l-0.116-0.398c0,0,0.526-0.687,0.971-1.354
		c0.444-0.666,0.605-1.778,0.605-1.778s0.931-0.485,1.354-1.899c0.425-1.415-0.162-2.183-0.162-2.183s0.263-0.809,0.122-4.123
		c-0.143-3.314-3.557-3.153-3.557-3.153s-0.849-1.051-2.506-1.172C9.097-0.109,6.995,0.598,5.904,3.387
		c-1.091,2.789-0.06,5.032-0.06,5.032S5.298,8.662,5.602,10.42c0.303,1.758,1.313,2.041,1.313,2.041s0,0.242,0.506,1.556
		c0.504,1.314,1.187,1.83,1.187,1.83l-0.568,1.34c0,0-0.243,0.364-2.757,0.932c-2.514,0.568-4.948,2.434-5.266,5.15
		c-0.318,2.718,4.252,4.168,10.579,4.168c1.441,0,2.868-0.1,4.21-0.251c-0.562-0.644-0.905-1.483-0.905-2.402V17.083z
		 M25.253,14.332h-7.701c-1.514,0-2.75,1.237-2.75,2.751v7.701c0,1.514,1.236,2.75,2.75,2.75h7.701c1.514,0,2.75-1.236,2.75-2.75
		v-7.701C28.003,15.569,26.767,14.332,25.253,14.332z M21.673,26.479l-6.046-4.684l1.573-2.029l3.725,2.886l4.137-7.128l2.221,1.287
		L21.673,26.479z"/>
</g>
</svg>
