<?xml version="1.0" encoding="utf-8"?>
<!-- Generator: Adobe Illustrator 13.0.1, SVG Export Plug-In . SVG Version: 6.00 Build 14948)  -->
<!DOCTYPE svg PUBLIC "-//W3C//DTD SVG 1.1//EN" "http://www.w3.org/Graphics/SVG/1.1/DTD/svg11.dtd">
<svg version="1.1" id="Слой_1" xmlns="http://www.w3.org/2000/svg" xmlns:xlink="http://www.w3.org/1999/xlink" x="0px" y="0px"
	 width="161.356px" height="111.72px" viewBox="0 0 161.356 111.72" style="enable-background:new 0 0 161.356 111.72;"
	 xml:space="preserve">
<g>
	<path style="fill:#C0C1C3;" d="M78.879,104.822c0,0-58.337-1.886-70.8,6.897c2.077-14.138,2.493-92.507,0-107.109
		c32.819-9.25,70.8,0,70.8,0V104.822z"/>
	<path style="fill:#7F8082;" d="M78.879,105.343c0,0-62.443-4.535-75.783,4.066c2.223-13.844,2.668-90.585,0-104.883
		c35.129-9.058,75.783,0,75.783,0V105.343z"/>
	<path style="fill:#FFFFFF;stroke:#7F8082;" d="M78.879,105.343c0,0-64.436-8.279-78.201,0c2.294-13.326,2.753-87.203,0-100.968
		c36.25-8.719,78.201,0,78.201,0V105.343z"/>
	<path style="fill:#C0C1C3;" d="M82.477,104.822c0,0,58.337-1.886,70.8,6.897c-2.077-14.138-2.493-92.507,0-107.109
		c-32.819-9.25-70.8,0-70.8,0V104.822z"/>
	<path style="fill:#7F8082;" d="M82.477,105.343c0,0,62.443-4.535,75.783,4.066c-2.223-13.844-2.668-90.585,0-104.883
		c-35.129-9.058-75.783,0-75.783,0V105.343z"/>
	<path style="fill:#FFFFFF;stroke:#7F8082;" d="M82.477,105.343c0,0,64.436-8.279,78.201,0c-2.295-13.326-2.754-87.203,0-100.968
		c-36.25-8.719-78.201,0-78.201,0V105.343z"/>
</g>
</svg>
