<?xml version="1.0" encoding="utf-8"?>
<!-- Generator: Adobe Illustrator 13.0.1, SVG Export Plug-In . SVG Version: 6.00 Build 14948)  -->
<!DOCTYPE svg PUBLIC "-//W3C//DTD SVG 1.1//EN" "http://www.w3.org/Graphics/SVG/1.1/DTD/svg11.dtd">
<svg version="1.1" id="Слой_1" xmlns="http://www.w3.org/2000/svg" xmlns:xlink="http://www.w3.org/1999/xlink" x="0px" y="0px"
	 width="56.171px" height="39.254px" viewBox="0 0 56.171 39.254" style="enable-background:new 0 0 56.171 39.254;"
	 xml:space="preserve">
<path style="fill:#FFFFFF;stroke:#C0C1C3;" d="M0.5,38.486c0,0,45.227-3,54.888,0c-1.609-4.828-1.932-31.595,0-36.583
	c-25.442-3.159-54.888,0-54.888,0V38.486z"/>
<g>
	<g>
		<path style="fill:#0092DF;" d="M33.987,10.999c1.226,0,2.247,0,3.359,0c1.813,0,3.54-0.174,4,1.286
			c0.317,1.007,0.071,2.676,0.071,3.859c0,2.513,0,4.959,0,7.713c0,1.271,0.16,3.1-0.145,3.716
			c-0.348,0.709-1.418,0.928-2.499,1.002c-1.122,0.073-2.487-0.214-3.501,0c-0.568,0.116-1.203,0.7-1.929,0.999
			c-0.839,0.345-1.858,0.713-2.999,0.714c-1.984,0.003-3.461-0.888-4.858-1.713c-2.286,0-5.046,0-7.572,0
			c-1.646,0-2.906-0.037-3.358-1.146c-0.292-0.717-0.143-2.484-0.143-3.785c0-2.66,0-5.039,0-7.788c0-2.631-0.33-5.018,2.357-4.858
			c0.165-0.24,0.023-0.783,0.071-1.143c1.072,0,2.143,0,3.214,0c0.148,0.256,0.036,0.772,0.072,1.143c1.737,0,3.476,0,5.215,0
			c0.572-0.563,0.227-1.946,1.357-2.215c0.795-0.19,2.04,0,3.357,0c0.957,0,2.476-0.219,3.071,0.215
			C33.823,9.501,33.517,10.473,33.987,10.999z M27.844,15.856c-1.926,0.725-3.988,2.772-4.287,5.431
			c-0.302,2.701,0.757,4.545,2.001,5.785c1.311,1.311,3.143,2.181,5.57,1.929c3.17-0.326,6.021-3.095,6.002-6.856
			c-0.016-2.764-1.729-4.905-3.43-5.858c-0.969-0.543-2.549-0.929-4-0.786C28.987,15.57,28.406,15.646,27.844,15.856z
			 M17.057,20.145c0,0.653,0,1.623,0,2.498c0,1.875-0.39,4.765,1.429,4.146c0.989-0.336,0.643-3.074,0.643-4.501
			c0-1.618,0.292-4.276-0.286-4.857c-0.301-0.303-0.841-0.217-0.856-0.215C16.833,17.385,17.057,18.846,17.057,20.145z"/>
		<path style="fill:#0092DF;" d="M29.703,17.429c4.006-0.497,7.135,3.885,4.571,7.571c-0.403,0.582-1.313,1.34-2.071,1.645
			c-2.984,1.198-6.779-0.826-6.715-4.572c0.025-1.521,0.68-2.565,1.286-3.214C27.399,18.187,28.408,17.588,29.703,17.429z
			 M31.987,24.93c2.158,0.045,3.218-2.759,1.929-4.43C34.22,22.756,33.287,24.073,31.987,24.93z"/>
	</g>
</g>
<path style="fill:#0092DF;" d="M2.341,4.38l9.908,6.192V9.674l-9.505-5.94L2.341,4.38z M52.667,4.1l-9.028,5.618v0.897l9.431-5.867
	L52.667,4.1z M53.851,35.675l-10.212-6.383v0.897l9.809,6.131L53.851,35.675z M2.177,35.512l0.402,0.646l9.67-6.018v-0.896
	L2.177,35.512z"/>
</svg>
