<?xml version="1.0" encoding="utf-8"?>
<!-- Generator: Adobe Illustrator 13.0.1, SVG Export Plug-In . SVG Version: 6.00 Build 14948)  -->
<!DOCTYPE svg PUBLIC "-//W3C//DTD SVG 1.1//EN" "http://www.w3.org/Graphics/SVG/1.1/DTD/svg11.dtd">
<svg version="1.1" id="Слой_1" xmlns="http://www.w3.org/2000/svg" xmlns:xlink="http://www.w3.org/1999/xlink" x="0px" y="0px"
	 width="56.17px" height="39.254px" viewBox="0 0 56.17 39.254" enable-background="new 0 0 56.17 39.254" xml:space="preserve">
<path fill="#C8FFFF" stroke="#C0C1C3" d="M55.67,38.486c0,0-45.226-3-54.888,0c1.61-4.828,1.932-31.595,0-36.583
	c25.443-3.159,54.888,0,54.888,0V38.486z"/>
<g>
	<g>
		<path fill="#7BB241" d="M26.088,8.836c0.187,0,0.372,0,0.559,0C26.575,8.902,26.161,8.902,26.088,8.836z"/>
		<path fill="#7BB241" d="M28.677,16.053c0.084,0.317,0.084,0.908,0,1.223C28.677,16.869,28.677,16.46,28.677,16.053z"/>
		<path fill="#FEEA3A" d="M45.315,22.443c-0.521-0.108-1.08-0.187-1.674-0.238c-0.457-0.091-0.976-0.135-1.523-0.158
			c-0.037-0.087-0.283-0.015-0.406-0.038c-0.068-0.09-0.352-0.014-0.506-0.039c-0.287,0.013-0.453-0.069-0.762-0.04
			c-0.119-0.09-0.457-0.015-0.658-0.039c-0.881,0-1.758,0-2.639,0c-0.17,0.024-0.472-0.051-0.56,0.039
			c-0.586,0.03-1.223,0.021-1.723,0.117c-0.128-0.003-0.246-0.004-0.306,0.041c-0.184-0.463-0.225-1.256-0.153-1.695
			c0.327-2.038,2.723-3.737,5.53-3.747C43.737,16.631,46.405,19.277,45.315,22.443z"/>
		<path fill="#7BB241" d="M13.408,19.169c0.519,0.025,0.966,0.058,1.471,0c-0.385,0.14-1.002,0.062-1.471,0.04
			C13.408,19.195,13.408,19.184,13.408,19.169z"/>
		<path fill="#9BCB64" d="M12.952,19.326c0.084,1.092,0.084,2.459,0,3.55C12.952,21.691,12.952,20.509,12.952,19.326z"/>
		<path fill="#9BCB64" d="M36.589,21.93c0.088-0.09,0.389-0.015,0.559-0.039C37.06,21.98,36.761,21.905,36.589,21.93z"/>
		<path fill="#9BCB64" d="M39.786,21.93c0-0.014,0-0.025,0-0.039c0.201,0.024,0.539-0.051,0.658,0.039c-0.101,0-0.203,0-0.303,0
			C40.022,21.93,39.905,21.93,39.786,21.93z"/>
		<path fill="#9BCB64" d="M41.712,22.009c-0.154-0.024-0.436,0.05-0.506-0.039C41.36,21.995,41.644,21.919,41.712,22.009z"/>
		<path fill="#9BCB64" d="M51.249,25.4c0.412-0.103,0.682-0.313,1.168-0.356c0,3.013,0,6.022,0,9.033
			c-7.221,0.065-14.797,0.065-22.016,0c3.928-1.101,7.254-2.671,10.602-4.22c-0.021-0.051-0.066-0.082-0.152-0.08
			c-0.326-0.01-0.727,0.037-0.912-0.079c1.369,0.224,2.133-0.388,3.095-0.828c1.659-0.763,3.09-1.465,4.817-2.169
			c0.273-0.111,0.654-0.2,0.812-0.434c0.295,0.004,0.502-0.06,0.662-0.158c0.303-0.079,0.577-0.182,0.811-0.314
			c0.017,0,0.035,0,0.052,0c0.172-0.05,0.34-0.104,0.455-0.197C50.913,25.585,50.999,25.43,51.249,25.4z"/>
		<path fill="#8AC249" d="M5.088,26.229c0.034,0,0.068,0,0.101,0c0.084,1.645,0.086,3.563,0,5.207c-0.032,0-0.066,0-0.101,0
			C5.088,29.698,5.088,27.964,5.088,26.229z"/>
		<path fill="#7FD7FE" d="M30.249,26.504c-0.141-0.037-0.217-0.12-0.355-0.156c6.099-0.185,12.58-0.025,18.769-0.08
			c-0.156,0.233-0.537,0.322-0.812,0.435c-1.729,0.704-3.158,1.407-4.817,2.169c-0.962,0.439-1.726,1.052-3.095,0.828
			c-0.067,0-0.137,0-0.205,0c-0.327-0.047-0.651-0.098-1.012-0.118c-0.227,0.005-0.299-0.108-0.559-0.077
			c-0.166-0.057-0.357-0.091-0.559-0.119c-0.019,0-0.035,0-0.051,0c-0.25-0.082-0.529-0.143-0.812-0.197c-0.021,0-0.035,0-0.052,0
			c-0.774-0.267-1.596-0.494-2.334-0.787c-0.018,0-0.035,0-0.051,0c-0.188-0.146-0.49-0.198-0.711-0.316
			c-0.184-0.055-0.283-0.175-0.508-0.197c-0.217-0.174-0.545-0.259-0.811-0.395c-0.019,0-0.033,0-0.051,0
			C31.601,27.136,30.892,26.846,30.249,26.504z"/>
		<path fill="#9BCB64" d="M5.088,10.927c0.248,0.022,0.12-0.248,0.152-0.395c0.223-0.129,0.293-0.377,0.406-0.591
			c0.535-0.347,0.946-0.827,1.521-0.947c-0.269-0.487-0.716-0.836-0.912-1.38c-0.037-0.487-0.013-0.993,0.151-1.38
			c0.124-0.292,0.17-0.29,0.354-0.513C6.98,5.457,7.33,5.046,7.725,4.814c0.063-0.037,0.157-0.015,0.253-0.079
			c0.427-0.282,2.033-0.466,2.841-0.197c0.521-0.922,1.336-1.694,2.74-1.814c0.025-0.032,0.053-0.064,0.05-0.119
			c0.017,0,0.034,0,0.051,0c0.095,0.246-0.268,0.134-0.457,0.158c-0.944,0.327-1.966,0.875-2.282,1.814
			c-0.238,0.013-0.457,0.013-0.508-0.118c-0.474,0-0.947,0-1.421,0C8.701,4.589,8.583,4.61,8.183,4.656
			C7.567,4.98,7.096,5.416,6.609,5.839C6.438,6.373,6.23,6.972,6.356,7.614c0.099,0.509,0.591,0.933,0.862,1.222
			c0,0.066,0,0.132,0,0.198c-0.785,0.307-1.78,0.861-1.927,1.893c-0.092-0.006-0.108,0.048-0.203,0.039
			C5.088,10.954,5.088,10.939,5.088,10.927z"/>
		<path fill="#9BCB64" d="M14.575,2.605c0.017,0,0.032,0,0.051,0c-0.002,0.068,0.038,0.103,0.1,0.119
			c0.637,0.012,0.772,0.207,1.32,0.316c0.316,0.28,0.632,0.56,1.015,0.789c0.056,0.272,0.284,0.41,0.304,0.71
			c0.592-0.105,1.262-0.15,2.029-0.118c1.422,0.334,2.522,1.206,2.74,2.602c0.304,0,0.609,0,0.912,0
			c-0.203,0.091-0.625,0.014-0.912,0.04c-0.001-0.038-0.063-0.031-0.102-0.04c0.046-0.193-0.04-0.285-0.151-0.354
			c0-0.132,0-0.263,0-0.394c-0.325-0.472-0.638-0.951-1.118-1.302c-0.531-0.057-0.707-0.476-1.268-0.395
			c-0.045-0.031-0.03-0.108-0.102-0.118c-0.473,0-0.947,0-1.421,0c-0.127,0.111-0.355,0.144-0.659,0.118
			c-0.398-1.031-1.296-1.7-2.738-1.814C14.575,2.711,14.575,2.658,14.575,2.605z"/>
		<path fill="#7BB241" d="M22.083,7.063c-0.047,0.332-0.122,0.642-0.255,0.907c1.418,0.396,2.735,1.438,2.435,3.037
			c-0.154,0.825-0.856,1.422-1.673,1.814c2.067,2.629-1.609,5.777-5.073,4.417c-0.302,0.594-0.614,1.178-1.318,1.459
			c0.59-0.356,0.998-0.854,1.217-1.498c3.715,1.335,7.054-1.837,5.123-4.339c0.932-0.581,1.846-1.355,1.674-2.603
			c-0.158-1.148-1.171-1.911-2.435-2.208C21.891,7.728,21.881,7.313,22.083,7.063z"/>
		<path fill="#8AC249" d="M16.198,18.696c-0.192,0.103-0.324,0.248-0.609,0.276c-0.178,0.087-0.469,0.083-0.609,0.197
			c-0.034,0-0.068,0-0.102,0c-0.505,0.058-0.952,0.025-1.471,0c-0.219,0.048-0.286-0.13-0.406-0.039
			c-0.995-0.357-1.744-0.906-2.079-1.774c-0.21-0.033-0.316,0.017-0.356,0.117c-0.298,0.044-0.849-0.107-0.914,0.118
			c-0.088-0.167-0.465-0.111-0.759-0.118c-1.55-0.366-2.801-1.391-2.538-3.076c0.036-0.233,0.172-0.507,0.356-0.71
			c-0.32-0.35-0.734-0.564-1.015-0.945c-0.055-0.077-0.129-0.249-0.252-0.395c-0.132-0.152-0.074-0.389-0.356-0.473
			c0-0.302,0-0.605,0-0.907c0.095,0.009,0.111-0.045,0.203-0.039c0.147-1.032,1.142-1.586,1.927-1.893c0-0.065,0-0.132,0-0.198
			c-0.271-0.29-0.763-0.714-0.862-1.223C6.23,6.972,6.438,6.373,6.609,5.839C7.096,5.416,7.567,4.98,8.183,4.656
			c0.4-0.045,0.519-0.067,0.811-0.196c0.474,0,0.947,0,1.421,0c0.052,0.13,0.271,0.13,0.508,0.118
			c0.316-0.939,1.337-1.487,2.282-1.814c0.189-0.024,0.551,0.088,0.457-0.158c0.305,0,0.608,0,0.914,0c0,0.053,0,0.105,0,0.158
			c1.442,0.114,2.34,0.783,2.738,1.814c0.304,0.026,0.532-0.007,0.659-0.118c0.474,0,0.948,0,1.421,0
			c0.072,0.009,0.057,0.086,0.102,0.118c0.561-0.081,0.737,0.337,1.268,0.395c0.48,0.351,0.792,0.831,1.118,1.302
			c0,0.131,0,0.262,0,0.394c0.111,0.07,0.197,0.161,0.151,0.354c0.039,0.009,0.101,0.002,0.102,0.04c-0.018,0-0.034,0-0.05,0
			c-0.201,0.251-0.192,0.666-0.305,0.985c1.264,0.297,2.277,1.06,2.435,2.208c0.172,1.248-0.742,2.022-1.674,2.603
			c1.931,2.502-1.408,5.674-5.123,4.339C17.196,17.843,16.789,18.339,16.198,18.696z"/>
		<path fill="#7BB241" d="M14.98,19.169c0.14-0.113,0.431-0.11,0.609-0.197C15.465,19.1,15.193,19.11,14.98,19.169z"/>
		<path fill="#9BCB64" d="M5.088,11.874c0.282,0.084,0.224,0.321,0.356,0.473c0.124,0.146,0.197,0.318,0.252,0.395
			c0.281,0.381,0.695,0.596,1.015,0.945c-0.184,0.204-0.32,0.478-0.356,0.71c-0.264,1.685,0.988,2.71,2.538,3.076
			c0.294,0.007,0.671-0.049,0.759,0.118c0.065-0.226,0.616-0.074,0.914-0.118c0.04-0.101,0.146-0.15,0.356-0.117
			c0.335,0.868,1.084,1.417,2.079,1.774c0.003,0.056,0.007,0.111-0.05,0.119c0-0.04,0-0.08,0-0.119
			c-1.056-0.297-1.711-0.904-2.082-1.735c-0.26,0.204-1.025,0.017-1.268,0.236c-0.107-0.166-0.501-0.11-0.812-0.117
			c-0.384-0.13-0.785-0.297-1.115-0.473c-1.127-0.603-1.993-2.097-1.014-3.432c-0.673-0.411-1.326-0.837-1.421-1.696
			c-0.052,0-0.102,0-0.152,0C5.088,11.9,5.088,11.886,5.088,11.874z"/>
		<path fill="#9BCB64" d="M51.401,24.296c-0.629-0.351-1.438-0.563-2.078-0.905C50.028,23.684,50.847,23.887,51.401,24.296z"/>
		<path fill="#9BCB64" d="M48.714,23.191c0.205,0.051,0.307,0.183,0.559,0.197c-0.016,0.053-0.127,0.032-0.205,0.038
			c-0.018-0.102-0.121-0.143-0.303-0.116C48.778,23.247,48.716,23.242,48.714,23.191z"/>
		<path fill="#FEEA3A" d="M48.612,23.073c0.832-0.706,1.754-1.345,2.586-2.052c-0.088-0.219-0.375-0.285-0.506-0.473
			c0.211,0.125,0.408,0.26,0.557,0.434C50.442,21.736,49.503,22.387,48.612,23.073z"/>
		<path fill="#FEEA3A" d="M48.765,19.051c0.572,0.396,1.109,0.818,1.623,1.262C49.825,19.909,49.284,19.487,48.765,19.051z"/>
		<path fill="#FEEA3A" d="M47.851,14.91c0.152,1.078-0.051,2.432,0.103,3.509C47.718,17.406,47.919,16.055,47.851,14.91z"/>
		<path fill="#FEEA3A" d="M42.474,14.161c0.357,0.222,0.685,0.468,0.965,0.75C43.095,14.677,42.772,14.427,42.474,14.161z"/>
		<path fill="#FEEA3A" d="M40.292,12.465c0.658,0.462,1.281,0.95,1.877,1.459C41.522,13.455,40.897,12.967,40.292,12.465z"/>
		<path fill="#FE9800" d="M32.126,14.91c1.471,0,2.943,0,4.414,0c0.654-0.571,1.664-1.329,2.535-2.012
			c0.273-0.214,0.885-0.894,1.217-0.434c0.605,0.502,1.23,0.99,1.877,1.459c0.135,0.055,0.236,0.133,0.305,0.237
			c0.299,0.267,0.621,0.516,0.965,0.75c1.472,0,2.941,0,4.412,0c0.068,1.145-0.133,2.496,0.103,3.509
			c0.299,0.187,0.569,0.398,0.813,0.632c0.52,0.436,1.061,0.857,1.623,1.262c0.133,0.055,0.235,0.133,0.305,0.236
			c0.131,0.188,0.418,0.254,0.506,0.473c-0.832,0.707-1.754,1.346-2.586,2.052c-0.137-0.027-0.098,0.081-0.154,0.118
			c-0.158,0.02-0.111-0.121-0.303-0.08c-0.371-0.131-0.768-0.244-1.217-0.313c-0.035,0-0.068,0-0.104,0
			c-0.203-0.116-0.502-0.162-0.81-0.196c-0.036,0-0.067,0-0.104,0c-0.139-0.104-0.422-0.095-0.607-0.158
			c1.091-3.167-1.578-5.812-5.377-5.797c-2.809,0.009-5.203,1.709-5.53,3.747c-0.07,0.439-0.029,1.232,0.153,1.695
			c-0.358-0.002-0.643,0.055-0.916,0.117c-0.049,0-0.1,0-0.149,0c-0.427,0.051-0.875,0.082-1.218,0.197c-0.032,0-0.067,0-0.102,0
			c-0.338,0.055-0.713,0.078-0.965,0.197c-0.256-0.002-0.289,0.051-0.506,0c-0.539-0.646-1.473-0.984-1.93-1.694
			c1.072-0.825,2.137-1.654,3.197-2.486c0.262-0.182,0.151-1.093,0.151-1.735C32.126,16.024,32.126,15.438,32.126,14.91z"/>
		<path fill="#FEEA3A" d="M32.126,14.91c0,0.527,0,1.114,0,1.774c0,0.643,0.109,1.554-0.152,1.735
			C32.243,17.42,31.94,15.976,32.126,14.91z"/>
		<path fill="#FEEA3A" d="M28.776,20.905c0.457,0.71,1.391,1.049,1.93,1.694c-0.018,0-0.035,0-0.051,0
			c-0.205-0.533-1.789-1.059-1.93-1.656C28.72,20.91,28.745,20.907,28.776,20.905z"/>
		<path fill="#9BCB64" d="M29.944,22.798c0.033,0.171-0.236,0.104-0.406,0.118c0.01,0.046-0.01,0.07-0.051,0.078
			C29.442,22.775,29.919,22.961,29.944,22.798z"/>
		<path fill="#9BCB64" d="M29.183,22.994c0.047,0.221-0.43,0.033-0.455,0.197C28.683,22.973,29.157,23.159,29.183,22.994z"/>
		<path fill="#9BCB64" d="M27.865,23.391c0.271,0,0.348-0.15,0.558-0.199C28.326,23.301,28.044,23.475,27.865,23.391z"/>
		<path fill="#9BCB64" d="M27.814,23.391c-0.467,0.268-1.018,0.469-1.623,0.629C26.733,23.813,27.272,23.6,27.814,23.391z"/>
		<path fill="#9BCB64" d="M24.923,24.098c0.133-0.014,0.499,0.267,0.709,0.198c-0.043-0.007-0.048,0.015-0.05,0.04
			C25.268,24.33,25.094,24.216,24.923,24.098z"/>
		<path fill="#9BCB64" d="M24.872,24.098c-0.092,0.107-0.139-0.15-0.354-0.078c-0.045-0.03-0.031-0.107-0.103-0.117
			C24.48,23.879,24.771,24.02,24.872,24.098z"/>
		<path fill="#9BCB64" d="M24.365,23.902c-0.289-0.041-0.806-0.241-1.167-0.355c0-1.314,0-2.63,0-3.943
			c0.325-0.05,0.367-0.321,0.609-0.435c0.052-0.024,0.052-0.09,0.152-0.078c-0.25,0.187-0.426,0.431-0.711,0.59
			c0,1.301,0,2.605,0,3.904C23.742,23.598,24.017,23.777,24.365,23.902z"/>
		<path fill="#9BCB64" d="M24.262,19.169c0.019,0,0.034,0,0.05,0c0.144,0.007,0.348-0.033,0.355,0.08
			c0.322,0.091,0.862,0.013,1.268,0.04c0.101-0.172,0.555-0.069,0.711-0.197C26.164,19.391,24.856,19.416,24.262,19.169z"/>
		<path fill="#9BCB64" d="M26.697,19.091c0.119-0.092,0.302-0.134,0.458-0.199C27.066,18.982,26.787,19.131,26.697,19.091z"/>
		<path fill="#9BCB64" d="M27.561,18.696c0.478-0.391,0.885-0.836,1.116-1.42c0.084-0.315,0.084-0.905,0-1.223
			c-0.191-0.132-0.123-0.54,0.152-0.551c-0.392,0.317,0.102,0.991-0.053,1.696c-0.047,0.214-0.394,0.842-0.556,1.025
			C28.042,18.421,27.769,18.461,27.561,18.696z"/>
		<path fill="#9BCB64" d="M28.929,15.502c0.393-0.275,0.682-0.627,0.914-1.026c0.063-0.194,0.135-0.735-0.051-0.867
			c-0.061-0.229-0.152-0.433-0.305-0.592c0.375,0.301,0.508,0.789,0.457,1.42C29.649,14.824,29.435,15.275,28.929,15.502z"/>
		<path fill="#9BCB64" d="M29.438,13.017c-0.198-0.412-0.891-0.439-1.218-0.749c0.144-0.244,0.355-0.433,0.406-0.75
			c0.15-0.212,0.207-0.99-0.05-1.143c-0.133-0.792-0.901-1.088-1.573-1.459c1.121,0.417,1.922,1.083,1.773,2.484
			c-0.164,0.305-0.312,0.622-0.504,0.907C28.687,12.522,29.298,12.587,29.438,13.017z"/>
		<path fill="#9BCB64" d="M26.953,8.916c-0.022,0.098-0.198,0.002-0.153-0.08c-0.052,0-0.103,0-0.152,0c-0.187,0-0.373,0-0.559,0
			c-0.046-0.028-0.077-0.072-0.1-0.118C26.175,8.889,26.823,8.699,26.953,8.916z"/>
		<path fill="#9BCB64" d="M25.886,8.718c-0.513,0.416-0.683-0.327-0.862-0.552c0.244,0.125,0.266,0.424,0.406,0.631
			C25.656,8.828,25.767,8.771,25.886,8.718z"/>
		<path fill="#9BCB64" d="M24.821,7.93c-0.111-0.058-0.237-0.104-0.203-0.276c-0.379-0.06-0.526-0.301-0.812-0.434
			C24.221,7.397,24.604,7.599,24.821,7.93z"/>
		<path fill="#9BCB64" d="M23.756,7.22c-0.021,0.098-0.197,0.002-0.153-0.079c-0.214,0.008-0.424,0.014-0.456-0.119
			C23.311,7.119,23.634,7.091,23.756,7.22z"/>
		<path fill="#7BB241" d="M28.576,10.375c0.257,0.153,0.2,0.931,0.05,1.143C28.688,11.227,28.757,10.606,28.576,10.375z"/>
		<path fill="#7BB241" d="M29.792,13.609c0.186,0.131,0.113,0.673,0.051,0.867C29.813,14.197,29.903,13.825,29.792,13.609z"/>
		<path fill="#679F38" d="M29.843,14.476c-0.232,0.399-0.521,0.751-0.914,1.026c-0.033,0-0.066,0-0.1,0
			c-0.275,0.011-0.343,0.419-0.152,0.551c0,0.407,0,0.815,0,1.223c-0.231,0.584-0.638,1.029-1.116,1.42
			c-0.16,0.039-0.203,0.317-0.406,0.197c-0.156,0.064-0.339,0.106-0.458,0.199c-0.016,0-0.032,0-0.05,0
			c-0.157,0.128-0.611,0.025-0.711,0.197c-0.321-0.093-0.86-0.015-1.268-0.04c-0.007-0.112-0.211-0.072-0.355-0.08
			c0.056-0.177-0.56-0.177-0.506,0c-0.243,0.113-0.284,0.384-0.609,0.435c0,1.313,0,2.628,0,3.943
			c-1.124-0.218-2.201-0.471-3.399-0.631c-0.213-0.908,0.287-2.302,0-3.116c-0.086-0.245-0.451-0.322-0.557-0.512
			c-0.302-0.135-1.047,0.077-1.27-0.119c-0.25,0.01-0.487,0.011-0.608-0.078c-0.017,0-0.034,0-0.051,0
			c-0.118-0.092-0.302-0.134-0.456-0.199c-0.187,0.106-0.237-0.166-0.406-0.197c-0.018,0-0.034,0-0.05,0c0,1.367,0,2.735,0,4.102
			c-1.137,0.064-2.378,0.255-3.399,0.275c0.003-0.055,0.007-0.111-0.05-0.118c0-0.026,0-0.054,0-0.079
			c0.084-1.091,0.084-2.458,0-3.55c0-0.025,0-0.053,0-0.078c0.058-0.007,0.054-0.063,0.05-0.119c0.12-0.091,0.187,0.087,0.406,0.039
			c0,0.015,0,0.026,0,0.04c0.468,0.022,1.086,0.101,1.471-0.04c0.034,0,0.068,0,0.102,0c0.212-0.059,0.485-0.069,0.609-0.197
			c0.285-0.028,0.417-0.174,0.609-0.276c0.704-0.281,1.016-0.865,1.318-1.459c3.464,1.36,7.14-1.788,5.073-4.417
			c0.817-0.392,1.519-0.989,1.673-1.814c0.3-1.6-1.017-2.641-2.435-3.037c0.133-0.265,0.208-0.575,0.255-0.907
			c0.016,0,0.032,0,0.05,0c0.287-0.026,0.709,0.051,0.912-0.04c0.034,0,0.068,0,0.103,0c0.032,0.133,0.242,0.127,0.456,0.119
			c-0.044,0.081,0.131,0.176,0.153,0.079c0.016,0,0.034,0,0.05,0c0.285,0.132,0.433,0.374,0.812,0.434
			c-0.034,0.172,0.092,0.219,0.203,0.276c0.133,0.028,0.228,0.085,0.203,0.237c0.179,0.225,0.349,0.967,0.862,0.552
			c0.034,0,0.068,0,0.103,0c0.023,0.046,0.054,0.09,0.1,0.118c0.072,0.066,0.487,0.066,0.559,0c0.05,0,0.1,0,0.152,0
			c-0.045,0.082,0.131,0.177,0.153,0.08c0.016,0,0.032,0,0.05,0c0.672,0.371,1.44,0.667,1.573,1.459
			c0.181,0.231,0.113,0.852,0.05,1.143c-0.05,0.317-0.262,0.506-0.406,0.75c0.329,0.31,1.02,0.337,1.217,0.749
			c0.017,0,0.033,0,0.049,0c0.152,0.16,0.244,0.363,0.306,0.592C29.903,13.825,29.813,14.197,29.843,14.476z"/>
		<path fill="#7BB241" d="M23.807,19.169c-0.054-0.177,0.562-0.177,0.506,0c-0.016,0-0.032,0-0.05,0
			c-0.081-0.13-0.188,0.005-0.303-0.078C23.858,19.079,23.858,19.145,23.807,19.169z"/>
		<path fill="#7BB241" d="M17.972,19.169c0.223,0.196,0.968-0.016,1.27,0.119C18.847,19.227,18.121,19.422,17.972,19.169z"/>
		<path fill="#9BCB64" d="M12.952,22.955c0.058,0.007,0.054,0.063,0.05,0.118c-1.196,0.224-2.5,0.565-3.349,0.829
			c0.887-0.375,2.053-0.633,3.299-0.829C12.952,23.035,12.952,22.994,12.952,22.955z"/>
		<path fill="#9BCB64" d="M9.147,24.098c0.1-0.078,0.392-0.219,0.456-0.195c-0.046,0.029-0.077,0.072-0.101,0.117
			C9.281,23.943,9.22,24.191,9.147,24.098z"/>
		<path fill="#9BCB64" d="M8.588,24.296c0.14-0.063,0.427-0.219,0.508-0.198C8.956,24.163,8.733,24.368,8.588,24.296z"/>
		<path fill="#9BCB64" d="M5.494,25.99c0.919-0.637,1.917-1.215,3.043-1.694c-0.354,0.207-0.772,0.479-1.269,0.632
			c-0.162,0.049-0.169,0.199-0.304,0.275c-0.043,0.023-0.152-0.02-0.203,0C6.452,25.318,5.774,25.99,5.494,25.99z"/>
		<path fill="#9BCB64" d="M5.444,25.99c-0.023,0.13-0.171,0.158-0.255,0.238c-0.032,0-0.066,0-0.101,0c0-0.015,0-0.026,0-0.039
			C5.284,26.184,5.288,26.029,5.444,25.99z"/>
		<path fill="#7BB241" d="M46.938,22.798c0.449,0.069,0.846,0.183,1.217,0.313C47.724,23.029,47.327,22.917,46.938,22.798z"/>
		<path fill="#7BB241" d="M46.026,22.602c0.307,0.034,0.604,0.08,0.809,0.196C46.554,22.741,46.272,22.684,46.026,22.602z"/>
		<path fill="#7BB241" d="M45.315,22.443c0.186,0.063,0.469,0.055,0.606,0.156c-0.235-0.093-0.674-0.029-0.86-0.156
			C45.151,22.418,45.272,22.559,45.315,22.443z"/>
		<path fill="#7BB241" d="M33.646,22.205c0.273-0.063,0.558-0.119,0.916-0.117c0.06-0.045,0.179-0.044,0.306-0.041
			c0.149,0,0.303,0,0.454,0C34.87,22.184,34.147,22.107,33.646,22.205z"/>
		<path fill="#7BB241" d="M33.495,22.205c-0.348,0.111-0.801,0.14-1.217,0.197C32.62,22.287,33.069,22.256,33.495,22.205z"/>
		<path fill="#7BB241" d="M32.177,22.402c-0.248,0.123-0.656,0.121-0.965,0.197C31.464,22.48,31.839,22.457,32.177,22.402z"/>
		<path fill="#9BCB64" d="M16.451,18.696c0.033,1.355-0.068,2.814,0.05,4.102c0.993-0.229,1.782,0.083,2.993,0
			c-0.447,0.036-0.944,0.086-1.42,0.038c-0.277-0.027-0.445-0.125-0.711-0.116c-0.331,0.009-0.686,0.249-0.962,0.078
			c0-1.368,0-2.735,0-4.102C16.417,18.696,16.433,18.696,16.451,18.696z"/>
		<path fill="#9BCB64" d="M16.857,18.893c0.154,0.064,0.338,0.106,0.456,0.199C17.274,19.092,16.92,19.004,16.857,18.893z"/>
		<path fill="#9BCB64" d="M17.364,19.091c0.122,0.089,0.359,0.088,0.608,0.078c0.149,0.253,0.875,0.058,1.27,0.119
			c0.106,0.19,0.471,0.267,0.557,0.512c0.287,0.814-0.213,2.208,0,3.116c-0.174,0.029-0.223-0.037-0.253-0.118
			c0.164-0.05,0.04,0.126,0.203,0.078c0-1.037,0-2.076,0-3.115c-0.215-0.109-0.275-0.359-0.608-0.435
			C18.584,19.204,17.707,19.431,17.364,19.091z"/>
		<path fill="#8AC249" d="M36.589,21.93c0.172-0.023,0.471,0.051,0.559-0.039c0.881,0,1.759,0,2.64,0c0,0.014,0,0.025,0,0.039
			c-0.104,0-0.203,0-0.306,0c-1.604-0.044-2.709,0.084-4.16,0.117c-0.151,0-0.305,0-0.454,0
			C35.366,21.951,36.003,21.96,36.589,21.93z"/>
		<path fill="#7BB241" d="M39.481,21.93c0.102,0,0.201,0,0.305,0c0.119,0,0.236,0,0.355,0c0.069,0.114,0.485-0.037,0.557,0.079
			C40.169,21.99,39.886,22.009,39.481,21.93z"/>
		<path fill="#8AC249" d="M43.235,22.205c0.135,0,0.27,0,0.406,0c0.594,0.053,1.151,0.13,1.674,0.238
			c-0.043,0.115-0.164-0.025-0.254,0C44.417,22.393,43.835,22.292,43.235,22.205z"/>
		<path fill="#679F38" d="M49.323,23.391c0.641,0.342,1.449,0.555,2.078,0.905c0.373-0.036,0.531,0.39,1.016,0.396
			c0,0.092,0,0.184,0,0.275c-0.955,0.217-1.76,0.551-2.537,0.908c-0.234,0.027-0.391,0.115-0.557,0.195
			c-1.119,0.267-3.586,0.158-5.225,0.158c-1.543,0-3.166,0-4.668,0c-3.457,0-6.459,0.148-9.386,0
			c-0.717-0.037-0.831-0.268-1.42-0.554c-0.923-0.446-2.214-0.965-3.043-1.34c0.001-0.024,0.007-0.047,0.05-0.04
			c0.239-0.051,0.297-0.243,0.559-0.275c0.605-0.16,1.156-0.362,1.623-0.631c0.017,0,0.034,0,0.051,0
			c0.179,0.084,0.461-0.089,0.558-0.197c0.101,0,0.204,0,0.305,0c0.025-0.164,0.502,0.022,0.455-0.197
			c0.092-0.072,0.129,0.031,0.305,0c0.041-0.008,0.062-0.032,0.052-0.078c0.17-0.014,0.438,0.053,0.405-0.118
			c0.269,0.035,0.324-0.149,0.712-0.118c0-0.027,0-0.053,0-0.078c0.016,0,0.032,0,0.051,0c0.217,0.049,0.25-0.004,0.506,0
			c0.31-0.078,0.718-0.076,0.966-0.199c0.032,0,0.067,0,0.102,0c0.416-0.058,0.869-0.084,1.217-0.196c0.051,0,0.102,0,0.15,0
			c0.502-0.099,1.225-0.021,1.676-0.158c1.451-0.034,2.557-0.161,4.16-0.118c0.404,0.08,0.688,0.063,1.217,0.08
			c0.359-0.016,0.586,0.069,0.965,0.038c0.434,0.124,1.096,0.069,1.572,0.158c0.6,0.087,1.182,0.187,1.826,0.237
			c0.188,0.129,0.625,0.064,0.86,0.158c0.035,0,0.066,0,0.104,0c0.246,0.082,0.527,0.141,0.809,0.196c0.035,0,0.068,0,0.104,0
			c0.39,0.119,0.785,0.231,1.218,0.313c0.19-0.041,0.146,0.1,0.303,0.08c0.058-0.037,0.019-0.146,0.154-0.118
			c-0.027,0.03-0.054,0.065-0.052,0.118c0.052,0,0.101,0,0.152,0c0.002,0.051,0.064,0.056,0.051,0.119
			c0.183-0.025,0.285,0.016,0.303,0.116c0.078-0.006,0.189,0.015,0.205-0.038C49.288,23.391,49.306,23.391,49.323,23.391z"/>
		<path fill="#7BB241" d="M52.417,24.967c0,0.014,0,0.026,0,0.039c-0.467,0.071-0.842,0.212-1.168,0.395
			c-0.25,0.029-0.336,0.186-0.609,0.197c-0.152,0.063-0.369,0.079-0.455,0.197c-0.016,0-0.035,0-0.051,0
			c-0.156-0.029-0.098,0.109-0.254,0.08C50.657,25.518,51.462,25.184,52.417,24.967z"/>
		<path fill="#8AC249" d="M49.323,26.07c0.166-0.08,0.322-0.168,0.557-0.195c0.156,0.029,0.098-0.109,0.254-0.08
			c-0.232,0.135-0.508,0.235-0.811,0.314C49.323,26.098,49.323,26.083,49.323,26.07z"/>
		<path fill="#7BB241" d="M49.323,26.07c0,0.013,0,0.025,0,0.039c-0.16,0.1-0.367,0.162-0.662,0.158
			c-6.188,0.053-12.67-0.104-18.768,0.08c0.139,0.035,0.215,0.118,0.354,0.155c0.59,0.382,1.299,0.673,1.979,0.986
			c0.018,0,0.032,0,0.051,0c0.215,0.177,0.529,0.271,0.811,0.395c0.225,0.022,0.324,0.144,0.508,0.197
			c0.16,0.166,0.461,0.22,0.711,0.315c0.017,0,0.033,0,0.051,0c0.683,0.336,1.49,0.576,2.334,0.789c0.017,0,0.031,0,0.052,0
			c0.223,0.102,0.489,0.168,0.812,0.196c0.016,0,0.032,0,0.051,0c0.145,0.071,0.313,0.125,0.559,0.119
			c0.26-0.032,0.332,0.082,0.559,0.077c0.279,0.084,0.605,0.131,1.012,0.117c0.068,0,0.138,0,0.205,0
			c0.187,0.117,0.586,0.07,0.912,0.08c-0.047,0.205-0.379,0.232-0.559,0.315c-2.945,1.369-6.037,2.814-9.537,3.823
			c-0.217,0.064-0.59,0.023-0.658,0.277c-8.334,0-16.673,0-25.008,0c0-0.92,0-1.84,0-2.76c0.034,0,0.068,0,0.101,0
			c0.086-1.645,0.084-3.563,0-5.207c0.084-0.08,0.232-0.107,0.255-0.238c0.016,0,0.032,0,0.05,0c0.28,0,0.958-0.672,1.268-0.786
			c0.051-0.021,0.16,0.024,0.203,0c0.135-0.076,0.142-0.228,0.304-0.275c0.497-0.151,0.916-0.425,1.269-0.632
			c0.017,0,0.034,0,0.051,0C8.737,24.365,8.96,24.16,9.1,24.095c0.017,0,0.032,0,0.051,0c0.073,0.095,0.134-0.153,0.355-0.077
			c0.023-0.047,0.054-0.09,0.101-0.117c0.019,0,0.034,0,0.05,0c0.85-0.264,2.153-0.605,3.349-0.83
			c1.021-0.021,2.263-0.211,3.399-0.274c0.276,0.171,0.632-0.069,0.962-0.078c0.266-0.009,0.434,0.089,0.711,0.116
			c0.476,0.048,0.973-0.002,1.42-0.038c0.017,0,0.034,0,0.051,0c0.03,0.081,0.079,0.147,0.253,0.118
			c1.198,0.16,2.275,0.413,3.399,0.631c0.362,0.114,0.878,0.314,1.167,0.355c0.016,0,0.034,0,0.05,0
			c0.072,0.009,0.057,0.086,0.103,0.117c0.215-0.074,0.262,0.186,0.354,0.077c0.018,0,0.034,0,0.052,0
			c0.17,0.118,0.345,0.232,0.659,0.238c0.829,0.375,2.12,0.894,3.043,1.34c0.589,0.286,0.703,0.517,1.42,0.554
			c2.927,0.148,5.929,0,9.386,0c1.502,0,3.125,0,4.668,0C45.737,26.229,48.204,26.337,49.323,26.07z"/>
		<path fill="#9BCB64" d="M33.089,27.885c-0.281-0.121-0.596-0.218-0.811-0.395C32.544,27.626,32.872,27.711,33.089,27.885z"/>
		<path fill="#8AC249" d="M40.851,29.777c0.086-0.002,0.131,0.029,0.152,0.08c-3.348,1.549-6.674,3.119-10.602,4.22
			c7.219,0.065,14.795,0.065,22.016,0c-0.008,0.006,0.006,0.034,0,0.038c-0.412,0.215-1.893,0.078-2.74,0.078
			c-6.441,0-13.273,0-19.58,0c0.068-0.254,0.441-0.211,0.658-0.276c3.5-1.009,6.592-2.454,9.537-3.823
			C40.472,30.011,40.804,29.982,40.851,29.777z"/>
		<path fill="#8AC249" d="M50.185,25.795c0.086-0.118,0.303-0.134,0.455-0.197C50.524,25.689,50.356,25.745,50.185,25.795z"/>
		<path fill="#8AC249" d="M51.249,25.4c0.326-0.184,0.701-0.323,1.168-0.396c0,0.013,0,0.026,0,0.038
			C51.931,25.088,51.661,25.299,51.249,25.4z"/>
		<path fill="#9BCB64" d="M39.733,29.698c-0.406,0.013-0.732-0.034-1.012-0.118C39.081,29.602,39.405,29.65,39.733,29.698z"/>
		<path fill="#9BCB64" d="M38.163,29.503c-0.246,0.006-0.414-0.048-0.559-0.119C37.806,29.412,37.997,29.445,38.163,29.503z"/>
		<path fill="#9BCB64" d="M37.554,29.384c-0.32-0.028-0.588-0.096-0.811-0.196C37.024,29.241,37.304,29.302,37.554,29.384z"/>
		<path fill="#9BCB64" d="M36.692,29.188c-0.844-0.213-1.652-0.453-2.334-0.789C35.097,28.691,35.917,28.92,36.692,29.188z"/>
		<path fill="#9BCB64" d="M34.308,28.398c-0.25-0.098-0.551-0.15-0.711-0.316C33.817,28.2,34.118,28.254,34.308,28.398z"/>
		<path fill="#9BCB64" d="M32.228,27.49c-0.68-0.313-1.389-0.604-1.979-0.986C30.892,26.846,31.601,27.136,32.228,27.49z"/>
		<path fill="#8AC249" d="M41.206,21.97c0.07,0.089,0.352,0.015,0.506,0.039c0.123,0.023,0.369-0.049,0.406,0.038
			c-0.152,0-0.303,0-0.455,0c-0.379,0.031-0.605-0.054-0.965-0.038c-0.07-0.116-0.486,0.035-0.557-0.079c0.1,0,0.202,0,0.303,0
			C40.753,21.898,40.919,21.982,41.206,21.97z"/>
		<path fill="#7BB241" d="M41.663,22.047c0.152,0,0.303,0,0.455,0c0.549,0.023,1.066,0.067,1.523,0.158c-0.138,0-0.271,0-0.406,0
			C42.759,22.116,42.097,22.171,41.663,22.047z"/>
		<path fill="#7BB241" d="M24.668,19.249c0.408,0.025,0.947-0.053,1.268,0.04C25.53,19.261,24.99,19.339,24.668,19.249z"/>
	</g>
</g>
</svg>
