<?xml version="1.0" encoding="utf-8"?>
<!-- Generator: Adobe Illustrator 13.0.1, SVG Export Plug-In . SVG Version: 6.00 Build 14948)  -->
<!DOCTYPE svg PUBLIC "-//W3C//DTD SVG 1.1//EN" "http://www.w3.org/Graphics/SVG/1.1/DTD/svg11.dtd">
<svg version="1.1" id="Слой_1" xmlns="http://www.w3.org/2000/svg" xmlns:xlink="http://www.w3.org/1999/xlink" x="0px" y="0px"
	 width="56.171px" height="39.254px" viewBox="0 0 56.171 39.254" enable-background="new 0 0 56.171 39.254" xml:space="preserve">
<path fill="#C8FFFF" stroke="#C0C1C3" d="M0.5,38.486c0,0,45.227-3,54.888,0c-1.609-4.828-1.932-31.595,0-36.583
	c-25.442-3.159-54.888,0-54.888,0V38.486z"/>
<g>
	<g>
		<path fill="#7BB241" d="M24.682,8.836c0.187,0,0.372,0,0.559,0C25.168,8.902,24.754,8.902,24.682,8.836z"/>
		<path fill="#7BB241" d="M27.27,16.053c0.084,0.317,0.084,0.908,0,1.223C27.27,16.869,27.27,16.46,27.27,16.053z"/>
		<path fill="#FEEA3A" d="M43.91,22.443c-0.521-0.108-1.08-0.187-1.675-0.238c-0.457-0.091-0.976-0.135-1.522-0.158
			c-0.037-0.087-0.283-0.015-0.406-0.038c-0.068-0.09-0.352-0.014-0.506-0.039c-0.287,0.013-0.453-0.069-0.762-0.04
			c-0.119-0.09-0.457-0.015-0.658-0.039c-0.881,0-1.758,0-2.639,0c-0.171,0.024-0.472-0.051-0.56,0.039
			c-0.586,0.03-1.224,0.021-1.724,0.117c-0.127-0.003-0.246-0.004-0.305,0.041c-0.184-0.463-0.225-1.256-0.154-1.695
			c0.328-2.038,2.724-3.737,5.531-3.747C42.332,16.631,45,19.277,43.91,22.443z"/>
		<path fill="#7BB241" d="M12.001,19.169c0.519,0.025,0.966,0.058,1.471,0c-0.385,0.14-1.002,0.062-1.471,0.04
			C12.001,19.195,12.001,19.184,12.001,19.169z"/>
		<path fill="#9BCB64" d="M11.545,19.326c0.084,1.092,0.084,2.459,0,3.55C11.545,21.691,11.545,20.509,11.545,19.326z"/>
		<path fill="#9BCB64" d="M35.182,21.93c0.088-0.09,0.389-0.015,0.56-0.039C35.653,21.98,35.354,21.905,35.182,21.93z"/>
		<path fill="#9BCB64" d="M38.378,21.93c0-0.014,0-0.025,0-0.039c0.201,0.024,0.539-0.051,0.658,0.039c-0.1,0-0.203,0-0.303,0
			C38.617,21.93,38.5,21.93,38.378,21.93z"/>
		<path fill="#9BCB64" d="M40.305,22.009c-0.154-0.024-0.437,0.05-0.507-0.039C39.955,21.995,40.237,21.919,40.305,22.009z"/>
		<path fill="#9BCB64" d="M49.841,25.4c0.412-0.103,0.683-0.313,1.168-0.356c0,3.013,0,6.022,0,9.033
			c-7.221,0.065-14.797,0.065-22.016,0c3.928-1.101,7.254-2.671,10.603-4.22c-0.021-0.051-0.066-0.082-0.152-0.08
			c-0.325-0.01-0.728,0.037-0.911-0.079c1.368,0.224,2.133-0.388,3.094-0.828c1.66-0.763,3.09-1.465,4.817-2.169
			c0.272-0.111,0.654-0.2,0.812-0.434c0.295,0.004,0.502-0.06,0.662-0.158c0.303-0.079,0.578-0.182,0.811-0.314
			c0.016,0,0.035,0,0.051,0c0.172-0.05,0.34-0.104,0.455-0.197C49.505,25.585,49.591,25.43,49.841,25.4z"/>
		<path fill="#8AC249" d="M3.682,26.229c0.034,0,0.068,0,0.101,0c0.084,1.645,0.086,3.563,0,5.207c-0.032,0-0.066,0-0.101,0
			C3.682,29.698,3.682,27.964,3.682,26.229z"/>
		<path fill="#7FD7FE" d="M28.841,26.504c-0.141-0.037-0.217-0.12-0.354-0.156c6.099-0.185,12.58-0.025,18.769-0.08
			c-0.156,0.233-0.537,0.322-0.812,0.435c-1.729,0.704-3.157,1.407-4.817,2.169c-0.961,0.439-1.726,1.052-3.094,0.828
			c-0.068,0-0.138,0-0.205,0c-0.328-0.047-0.652-0.098-1.013-0.118c-0.228,0.005-0.299-0.108-0.56-0.077
			c-0.166-0.057-0.356-0.091-0.559-0.119c-0.018,0-0.035,0-0.051,0c-0.25-0.082-0.529-0.143-0.811-0.197c-0.021,0-0.035,0-0.051,0
			c-0.775-0.267-1.597-0.494-2.334-0.787c-0.019,0-0.035,0-0.052,0c-0.188-0.146-0.489-0.198-0.711-0.316
			c-0.185-0.055-0.283-0.175-0.508-0.197c-0.218-0.174-0.546-0.259-0.812-0.395c-0.018,0-0.033,0-0.051,0
			C30.194,27.136,29.485,26.846,28.841,26.504z"/>
		<path fill="#9BCB64" d="M3.682,10.927c0.248,0.022,0.12-0.248,0.152-0.395c0.223-0.129,0.293-0.377,0.406-0.591
			c0.535-0.347,0.946-0.827,1.521-0.947c-0.269-0.487-0.716-0.836-0.912-1.38C4.813,7.127,4.836,6.621,5,6.234
			c0.124-0.292,0.17-0.29,0.355-0.513c0.219-0.264,0.569-0.675,0.964-0.907c0.063-0.037,0.157-0.015,0.253-0.079
			C7,4.453,8.605,4.269,9.414,4.539c0.521-0.922,1.336-1.694,2.74-1.814c0.025-0.032,0.053-0.064,0.05-0.119
			c0.017,0,0.034,0,0.051,0c0.095,0.246-0.268,0.134-0.457,0.158C10.854,3.09,9.832,3.638,9.516,4.577
			C9.278,4.59,9.06,4.59,9.008,4.459c-0.474,0-0.947,0-1.421,0C7.294,4.589,7.176,4.61,6.776,4.656
			C6.16,4.98,5.689,5.416,5.203,5.839c-0.171,0.534-0.38,1.133-0.254,1.775C5.048,8.123,5.54,8.547,5.812,8.836
			c0,0.066,0,0.132,0,0.198c-0.785,0.307-1.78,0.861-1.927,1.893c-0.092-0.006-0.108,0.048-0.203,0.039
			C3.682,10.954,3.682,10.939,3.682,10.927z"/>
		<path fill="#9BCB64" d="M13.168,2.605c0.017,0,0.032,0,0.051,0c-0.002,0.068,0.038,0.103,0.1,0.119
			c0.637,0.012,0.772,0.207,1.32,0.316c0.316,0.28,0.632,0.56,1.015,0.789c0.056,0.272,0.284,0.41,0.304,0.71
			c0.592-0.105,1.262-0.15,2.029-0.118c1.422,0.334,2.522,1.206,2.74,2.602c0.304,0,0.609,0,0.912,0
			c-0.203,0.091-0.625,0.014-0.912,0.04c-0.001-0.038-0.063-0.031-0.102-0.04c0.046-0.193-0.04-0.285-0.151-0.354
			c0-0.132,0-0.263,0-0.394c-0.325-0.472-0.638-0.951-1.118-1.302c-0.531-0.057-0.707-0.476-1.268-0.395
			c-0.045-0.031-0.03-0.108-0.102-0.118c-0.473,0-0.947,0-1.421,0c-0.127,0.111-0.355,0.144-0.659,0.118
			c-0.398-1.031-1.296-1.7-2.738-1.814C13.168,2.711,13.168,2.658,13.168,2.605z"/>
		<path fill="#7BB241" d="M20.676,7.063c-0.047,0.332-0.122,0.642-0.255,0.907c1.418,0.396,2.735,1.438,2.435,3.037
			c-0.154,0.825-0.856,1.422-1.673,1.814c2.067,2.629-1.609,5.777-5.073,4.417c-0.302,0.594-0.614,1.178-1.318,1.459
			c0.59-0.356,0.998-0.854,1.217-1.498c3.715,1.335,7.054-1.837,5.123-4.339c0.932-0.581,1.846-1.355,1.674-2.603
			c-0.158-1.148-1.171-1.911-2.435-2.208C20.484,7.728,20.475,7.313,20.676,7.063z"/>
		<path fill="#8AC249" d="M14.792,18.696c-0.192,0.103-0.324,0.248-0.609,0.276c-0.178,0.087-0.469,0.083-0.609,0.197
			c-0.034,0-0.068,0-0.102,0c-0.505,0.058-0.952,0.025-1.471,0c-0.219,0.048-0.286-0.13-0.406-0.039
			c-0.995-0.357-1.744-0.906-2.079-1.774c-0.21-0.033-0.316,0.017-0.356,0.117c-0.298,0.044-0.849-0.107-0.914,0.118
			c-0.088-0.167-0.465-0.111-0.759-0.118c-1.55-0.366-2.801-1.391-2.538-3.076c0.036-0.233,0.172-0.507,0.356-0.71
			c-0.32-0.35-0.734-0.564-1.015-0.945c-0.055-0.077-0.129-0.249-0.252-0.395c-0.132-0.152-0.074-0.389-0.356-0.473
			c0-0.302,0-0.605,0-0.907c0.095,0.009,0.111-0.045,0.203-0.039c0.147-1.032,1.142-1.586,1.927-1.893c0-0.065,0-0.132,0-0.198
			C5.54,8.547,5.048,8.123,4.949,7.614C4.823,6.972,5.032,6.373,5.203,5.839C5.689,5.416,6.16,4.98,6.776,4.656
			c0.4-0.045,0.519-0.067,0.811-0.196c0.474,0,0.947,0,1.421,0c0.052,0.13,0.27,0.13,0.508,0.117
			c0.316-0.939,1.337-1.487,2.282-1.814c0.189-0.024,0.551,0.088,0.457-0.158c0.305,0,0.608,0,0.914,0c0,0.053,0,0.105,0,0.158
			c1.442,0.114,2.34,0.783,2.738,1.814c0.304,0.026,0.532-0.007,0.659-0.118c0.474,0,0.948,0,1.421,0
			c0.072,0.009,0.057,0.086,0.102,0.118c0.561-0.081,0.737,0.337,1.268,0.395c0.48,0.351,0.792,0.831,1.118,1.302
			c0,0.131,0,0.262,0,0.394c0.111,0.07,0.197,0.161,0.151,0.354c0.039,0.009,0.101,0.002,0.102,0.04c-0.018,0-0.034,0-0.05,0
			c-0.201,0.251-0.192,0.666-0.305,0.985c1.264,0.297,2.277,1.06,2.435,2.208c0.172,1.248-0.742,2.022-1.674,2.603
			c1.931,2.502-1.408,5.674-5.123,4.339C15.79,17.843,15.382,18.339,14.792,18.696z"/>
		<path fill="#7BB241" d="M13.574,19.169c0.14-0.113,0.431-0.11,0.609-0.197C14.059,19.1,13.786,19.11,13.574,19.169z"/>
		<path fill="#9BCB64" d="M3.682,11.874c0.282,0.084,0.224,0.321,0.356,0.473c0.124,0.146,0.197,0.318,0.252,0.395
			c0.281,0.381,0.695,0.596,1.015,0.945c-0.184,0.204-0.32,0.478-0.356,0.71c-0.264,1.685,0.988,2.71,2.538,3.076
			c0.294,0.007,0.671-0.049,0.759,0.118c0.065-0.226,0.616-0.074,0.914-0.118c0.04-0.101,0.146-0.15,0.356-0.117
			c0.335,0.868,1.084,1.417,2.079,1.774c0.003,0.056,0.007,0.111-0.05,0.119c0-0.04,0-0.08,0-0.119
			c-1.056-0.297-1.711-0.904-2.082-1.735c-0.26,0.204-1.025,0.017-1.268,0.236c-0.107-0.166-0.501-0.11-0.812-0.117
			C7,17.383,6.599,17.216,6.269,17.041c-1.127-0.603-1.993-2.097-1.014-3.432c-0.673-0.411-1.326-0.837-1.421-1.696
			c-0.052,0-0.102,0-0.152,0C3.682,11.9,3.682,11.886,3.682,11.874z"/>
		<path fill="#9BCB64" d="M49.996,24.296c-0.629-0.351-1.438-0.563-2.078-0.905C48.623,23.684,49.44,23.887,49.996,24.296z"/>
		<path fill="#9BCB64" d="M47.307,23.191c0.205,0.051,0.308,0.183,0.56,0.197c-0.017,0.053-0.127,0.032-0.205,0.038
			c-0.019-0.102-0.121-0.143-0.304-0.116C47.373,23.247,47.309,23.242,47.307,23.191z"/>
		<path fill="#FEEA3A" d="M47.207,23.073c0.832-0.706,1.754-1.345,2.586-2.052c-0.088-0.219-0.375-0.285-0.506-0.473
			c0.211,0.125,0.407,0.26,0.557,0.434C49.037,21.736,48.096,22.387,47.207,23.073z"/>
		<path fill="#FEEA3A" d="M47.358,19.051c0.572,0.396,1.108,0.818,1.623,1.262C48.417,19.909,47.876,19.487,47.358,19.051z"/>
		<path fill="#FEEA3A" d="M46.444,14.91c0.152,1.078-0.051,2.432,0.103,3.509C46.311,17.406,46.512,16.055,46.444,14.91z"/>
		<path fill="#FEEA3A" d="M41.067,14.161c0.356,0.222,0.685,0.468,0.966,0.75C41.688,14.677,41.367,14.427,41.067,14.161z"/>
		<path fill="#FEEA3A" d="M38.884,12.465c0.658,0.462,1.281,0.95,1.878,1.459C40.117,13.455,39.492,12.967,38.884,12.465z"/>
		<path fill="#FE9800" d="M30.718,14.91c1.472,0,2.943,0,4.414,0c0.654-0.571,1.664-1.329,2.535-2.012
			c0.273-0.214,0.886-0.894,1.217-0.434c0.605,0.502,1.23,0.99,1.878,1.459c0.135,0.055,0.235,0.133,0.305,0.237
			c0.3,0.267,0.621,0.516,0.966,0.75c1.471,0,2.94,0,4.411,0c0.068,1.145-0.133,2.496,0.103,3.509
			c0.299,0.187,0.57,0.398,0.813,0.632c0.52,0.436,1.061,0.857,1.623,1.262c0.133,0.055,0.236,0.133,0.305,0.236
			c0.131,0.188,0.418,0.254,0.506,0.473c-0.832,0.707-1.754,1.346-2.586,2.052c-0.137-0.027-0.098,0.081-0.153,0.118
			c-0.158,0.02-0.111-0.121-0.304-0.08c-0.371-0.131-0.768-0.244-1.217-0.313c-0.035,0-0.068,0-0.104,0
			c-0.203-0.116-0.502-0.162-0.809-0.196c-0.037,0-0.068,0-0.104,0c-0.14-0.104-0.423-0.095-0.606-0.158
			c1.09-3.167-1.578-5.812-5.377-5.797c-2.81,0.009-5.203,1.709-5.531,3.747c-0.07,0.439-0.029,1.232,0.153,1.695
			c-0.358-0.002-0.643,0.055-0.915,0.117c-0.05,0-0.101,0-0.15,0c-0.426,0.051-0.875,0.082-1.217,0.197c-0.033,0-0.068,0-0.103,0
			c-0.338,0.055-0.713,0.078-0.965,0.197c-0.257-0.002-0.289,0.051-0.507,0c-0.539-0.646-1.472-0.984-1.929-1.694
			c1.072-0.825,2.136-1.654,3.197-2.486c0.262-0.182,0.152-1.093,0.152-1.735C30.718,16.024,30.718,15.438,30.718,14.91z"/>
		<path fill="#FEEA3A" d="M30.718,14.91c0,0.527,0,1.114,0,1.774c0,0.643,0.109,1.554-0.151,1.735
			C30.835,17.42,30.535,15.976,30.718,14.91z"/>
		<path fill="#FEEA3A" d="M27.37,20.905c0.457,0.71,1.391,1.049,1.93,1.694c-0.018,0-0.035,0-0.051,0
			c-0.205-0.533-1.79-1.059-1.93-1.656C27.313,20.91,27.339,20.907,27.37,20.905z"/>
		<path fill="#9BCB64" d="M28.538,22.798c0.033,0.171-0.236,0.104-0.406,0.118c0.01,0.046-0.01,0.07-0.051,0.078
			C28.036,22.775,28.512,22.961,28.538,22.798z"/>
		<path fill="#9BCB64" d="M27.776,22.994c0.047,0.221-0.43,0.033-0.456,0.197C27.275,22.973,27.75,23.159,27.776,22.994z"/>
		<path fill="#9BCB64" d="M26.458,23.391c0.271,0,0.348-0.15,0.558-0.199C26.919,23.301,26.637,23.475,26.458,23.391z"/>
		<path fill="#9BCB64" d="M26.407,23.391c-0.467,0.268-1.018,0.469-1.623,0.629C25.327,23.813,25.865,23.6,26.407,23.391z"/>
		<path fill="#9BCB64" d="M23.517,24.098c0.133-0.014,0.499,0.267,0.709,0.198c-0.043-0.007-0.048,0.015-0.05,0.04
			C23.861,24.33,23.687,24.216,23.517,24.098z"/>
		<path fill="#9BCB64" d="M23.465,24.098c-0.092,0.107-0.139-0.15-0.354-0.078c-0.045-0.03-0.031-0.107-0.103-0.117
			C23.073,23.879,23.364,24.02,23.465,24.098z"/>
		<path fill="#9BCB64" d="M22.958,23.902c-0.289-0.041-0.806-0.241-1.167-0.355c0-1.314,0-2.63,0-3.943
			c0.325-0.05,0.367-0.321,0.609-0.435c0.052-0.024,0.052-0.09,0.152-0.078c-0.25,0.187-0.426,0.431-0.711,0.59
			c0,1.301,0,2.605,0,3.904C22.335,23.598,22.61,23.777,22.958,23.902z"/>
		<path fill="#9BCB64" d="M22.855,19.169c0.019,0,0.034,0,0.05,0c0.144,0.007,0.348-0.033,0.355,0.08
			c0.322,0.091,0.862,0.013,1.268,0.04c0.101-0.172,0.555-0.069,0.711-0.197C24.757,19.391,23.45,19.416,22.855,19.169z"/>
		<path fill="#9BCB64" d="M25.291,19.091c0.119-0.092,0.302-0.134,0.458-0.199C25.659,18.982,25.38,19.131,25.291,19.091z"/>
		<path fill="#9BCB64" d="M26.154,18.696c0.478-0.391,0.885-0.836,1.115-1.42c0.084-0.315,0.084-0.905,0-1.223
			c-0.19-0.132-0.122-0.54,0.152-0.551c-0.392,0.317,0.103,0.991-0.052,1.696c-0.046,0.214-0.393,0.842-0.556,1.025
			C26.636,18.421,26.362,18.461,26.154,18.696z"/>
		<path fill="#9BCB64" d="M27.522,15.502c0.392-0.275,0.681-0.627,0.914-1.026c0.063-0.194,0.135-0.735-0.051-0.867
			c-0.061-0.229-0.152-0.433-0.305-0.592c0.375,0.301,0.507,0.789,0.457,1.42C28.243,14.824,28.028,15.275,27.522,15.502z"/>
		<path fill="#9BCB64" d="M28.032,13.017c-0.198-0.412-0.89-0.439-1.218-0.749c0.144-0.244,0.355-0.433,0.405-0.75
			c0.151-0.212,0.207-0.99-0.05-1.143c-0.133-0.792-0.901-1.088-1.573-1.459c1.121,0.417,1.922,1.083,1.774,2.484
			c-0.165,0.305-0.312,0.622-0.505,0.907C27.28,12.522,27.891,12.587,28.032,13.017z"/>
		<path fill="#9BCB64" d="M25.546,8.916c-0.022,0.098-0.198,0.002-0.153-0.08c-0.052,0-0.103,0-0.152,0c-0.187,0-0.373,0-0.559,0
			c-0.046-0.028-0.077-0.072-0.1-0.118C24.768,8.889,25.417,8.699,25.546,8.916z"/>
		<path fill="#9BCB64" d="M24.479,8.718c-0.513,0.416-0.683-0.327-0.862-0.552c0.244,0.125,0.266,0.424,0.406,0.631
			C24.249,8.828,24.36,8.771,24.479,8.718z"/>
		<path fill="#9BCB64" d="M23.414,7.93c-0.111-0.058-0.237-0.104-0.203-0.276c-0.379-0.06-0.526-0.301-0.812-0.434
			C22.814,7.397,23.197,7.599,23.414,7.93z"/>
		<path fill="#9BCB64" d="M22.35,7.22c-0.021,0.098-0.197,0.002-0.153-0.079c-0.214,0.008-0.424,0.014-0.456-0.119
			C21.904,7.119,22.227,7.091,22.35,7.22z"/>
		<path fill="#7BB241" d="M27.169,10.375c0.257,0.153,0.201,0.931,0.05,1.143C27.282,11.227,27.35,10.606,27.169,10.375z"/>
		<path fill="#7BB241" d="M28.385,13.609c0.186,0.131,0.113,0.673,0.051,0.867C28.407,14.197,28.497,13.825,28.385,13.609z"/>
		<path fill="#679F38" d="M28.436,14.476c-0.232,0.399-0.521,0.751-0.914,1.026c-0.034,0-0.066,0-0.101,0
			c-0.274,0.011-0.343,0.419-0.152,0.551c0,0.407,0,0.815,0,1.223c-0.23,0.584-0.638,1.029-1.115,1.42
			c-0.16,0.039-0.203,0.317-0.406,0.197c-0.156,0.064-0.339,0.106-0.458,0.199c-0.016,0-0.032,0-0.05,0
			c-0.157,0.128-0.611,0.025-0.711,0.197c-0.321-0.093-0.86-0.015-1.268-0.04c-0.007-0.112-0.211-0.072-0.354-0.08
			c0.056-0.177-0.56-0.177-0.506,0c-0.243,0.113-0.284,0.384-0.609,0.435c0,1.313,0,2.628,0,3.943
			c-1.124-0.218-2.201-0.471-3.399-0.631c-0.213-0.908,0.287-2.302,0-3.116c-0.086-0.245-0.451-0.322-0.557-0.512
			c-0.302-0.135-1.047,0.077-1.27-0.119c-0.25,0.01-0.487,0.011-0.608-0.078c-0.017,0-0.034,0-0.051,0
			c-0.118-0.092-0.302-0.134-0.456-0.199c-0.187,0.106-0.237-0.166-0.406-0.197c-0.018,0-0.034,0-0.05,0c0,1.367,0,2.735,0,4.102
			c-1.137,0.064-2.378,0.255-3.399,0.275c0.003-0.055,0.007-0.111-0.05-0.118c0-0.026,0-0.054,0-0.079
			c0.084-1.091,0.084-2.458,0-3.55c0-0.025,0-0.053,0-0.078c0.058-0.007,0.054-0.063,0.05-0.119c0.12-0.091,0.187,0.087,0.406,0.039
			c0,0.015,0,0.026,0,0.04c0.468,0.022,1.086,0.101,1.471-0.04c0.034,0,0.068,0,0.102,0c0.212-0.059,0.485-0.069,0.609-0.197
			c0.285-0.028,0.417-0.174,0.609-0.276c0.704-0.281,1.016-0.865,1.318-1.459c3.464,1.36,7.14-1.788,5.073-4.417
			c0.817-0.392,1.519-0.989,1.673-1.814c0.3-1.6-1.017-2.641-2.435-3.037c0.133-0.265,0.208-0.575,0.255-0.907
			c0.016,0,0.032,0,0.05,0c0.287-0.026,0.709,0.051,0.912-0.04c0.034,0,0.068,0,0.103,0c0.032,0.133,0.242,0.127,0.456,0.119
			c-0.044,0.081,0.131,0.176,0.153,0.079c0.016,0,0.034,0,0.05,0c0.285,0.132,0.433,0.374,0.812,0.434
			c-0.034,0.172,0.092,0.219,0.203,0.276c0.133,0.028,0.228,0.085,0.203,0.237c0.179,0.225,0.349,0.967,0.862,0.552
			c0.034,0,0.068,0,0.103,0c0.023,0.046,0.054,0.09,0.1,0.118c0.072,0.066,0.487,0.066,0.559,0c0.05,0,0.1,0,0.152,0
			c-0.045,0.082,0.131,0.177,0.153,0.08c0.016,0,0.032,0,0.05,0c0.672,0.371,1.44,0.667,1.573,1.459
			c0.181,0.231,0.113,0.852,0.05,1.143c-0.05,0.317-0.262,0.506-0.405,0.75c0.329,0.31,1.02,0.337,1.218,0.749
			c0.016,0,0.033,0,0.049,0c0.152,0.16,0.244,0.363,0.305,0.592C28.497,13.825,28.407,14.197,28.436,14.476z"/>
		<path fill="#7BB241" d="M22.4,19.169c-0.054-0.177,0.562-0.177,0.506,0c-0.016,0-0.032,0-0.05,0
			c-0.081-0.13-0.188,0.005-0.303-0.078C22.452,19.079,22.452,19.145,22.4,19.169z"/>
		<path fill="#7BB241" d="M16.565,19.169c0.223,0.196,0.968-0.016,1.27,0.119C17.44,19.227,16.714,19.422,16.565,19.169z"/>
		<path fill="#9BCB64" d="M11.545,22.955c0.058,0.007,0.054,0.063,0.05,0.118c-1.196,0.224-2.5,0.565-3.349,0.829
			c0.887-0.375,2.053-0.633,3.299-0.829C11.545,23.035,11.545,22.994,11.545,22.955z"/>
		<path fill="#9BCB64" d="M7.74,24.098c0.1-0.078,0.392-0.219,0.456-0.195c-0.046,0.029-0.077,0.072-0.101,0.117
			C7.875,23.943,7.813,24.191,7.74,24.098z"/>
		<path fill="#9BCB64" d="M7.182,24.296c0.14-0.063,0.427-0.219,0.508-0.198C7.549,24.163,7.327,24.368,7.182,24.296z"/>
		<path fill="#9BCB64" d="M4.087,25.99c0.919-0.637,1.917-1.215,3.043-1.694c-0.354,0.207-0.772,0.479-1.269,0.632
			c-0.162,0.049-0.169,0.199-0.304,0.275c-0.043,0.023-0.152-0.02-0.203,0C5.045,25.318,4.368,25.99,4.087,25.99z"/>
		<path fill="#9BCB64" d="M4.038,25.99c-0.023,0.13-0.171,0.158-0.255,0.238c-0.032,0-0.066,0-0.101,0c0-0.015,0-0.026,0-0.039
			C3.877,26.184,3.881,26.029,4.038,25.99z"/>
		<path fill="#7BB241" d="M45.533,22.798c0.448,0.069,0.846,0.183,1.217,0.313C46.317,23.029,45.919,22.917,45.533,22.798z"/>
		<path fill="#7BB241" d="M44.621,22.602c0.307,0.034,0.604,0.08,0.809,0.196C45.147,22.741,44.867,22.684,44.621,22.602z"/>
		<path fill="#7BB241" d="M43.91,22.443c0.186,0.063,0.469,0.055,0.606,0.156c-0.236-0.093-0.675-0.029-0.861-0.156
			C43.746,22.418,43.867,22.559,43.91,22.443z"/>
		<path fill="#7BB241" d="M32.24,22.205c0.272-0.063,0.557-0.119,0.915-0.117c0.06-0.045,0.179-0.044,0.306-0.041
			c0.149,0,0.303,0,0.455,0C33.462,22.184,32.742,22.107,32.24,22.205z"/>
		<path fill="#7BB241" d="M32.087,22.205c-0.348,0.111-0.801,0.14-1.217,0.197C31.212,22.287,31.664,22.256,32.087,22.205z"/>
		<path fill="#7BB241" d="M30.77,22.402c-0.248,0.123-0.655,0.121-0.965,0.197C30.057,22.48,30.432,22.457,30.77,22.402z"/>
		<path fill="#9BCB64" d="M15.044,18.696c0.033,1.355-0.068,2.814,0.05,4.102c0.993-0.229,1.782,0.083,2.993,0
			c-0.447,0.036-0.944,0.086-1.42,0.038c-0.277-0.027-0.445-0.125-0.711-0.116c-0.331,0.009-0.686,0.249-0.962,0.078
			c0-1.368,0-2.735,0-4.102C15.01,18.696,15.026,18.696,15.044,18.696z"/>
		<path fill="#9BCB64" d="M15.45,18.893c0.154,0.064,0.338,0.106,0.456,0.199C15.867,19.092,15.514,19.004,15.45,18.893z"/>
		<path fill="#9BCB64" d="M15.957,19.091c0.122,0.089,0.359,0.088,0.608,0.078c0.149,0.253,0.875,0.058,1.27,0.119
			c0.106,0.19,0.471,0.267,0.557,0.512c0.287,0.814-0.213,2.208,0,3.116c-0.174,0.029-0.223-0.037-0.253-0.118
			c0.164-0.05,0.04,0.126,0.203,0.078c0-1.037,0-2.076,0-3.115c-0.215-0.109-0.275-0.359-0.608-0.435
			C17.178,19.204,16.3,19.431,15.957,19.091z"/>
		<path fill="#8AC249" d="M35.182,21.93c0.172-0.023,0.471,0.051,0.56-0.039c0.881,0,1.758,0,2.639,0c0,0.014,0,0.025,0,0.039
			c-0.104,0-0.203,0-0.305,0c-1.604-0.044-2.709,0.084-4.16,0.117c-0.152,0-0.306,0-0.455,0
			C33.958,21.951,34.596,21.96,35.182,21.93z"/>
		<path fill="#7BB241" d="M38.076,21.93c0.102,0,0.2,0,0.305,0c0.119,0,0.236,0,0.354,0c0.07,0.114,0.486-0.037,0.558,0.079
			C38.762,21.99,38.479,22.009,38.076,21.93z"/>
		<path fill="#8AC249" d="M41.83,22.205c0.135,0,0.27,0,0.405,0c0.595,0.053,1.152,0.13,1.675,0.238
			c-0.043,0.115-0.164-0.025-0.255,0C43.009,22.393,42.428,22.292,41.83,22.205z"/>
		<path fill="#679F38" d="M47.917,23.391c0.641,0.342,1.449,0.555,2.078,0.905c0.373-0.036,0.53,0.39,1.016,0.396
			c0,0.092,0,0.184,0,0.275c-0.955,0.217-1.76,0.551-2.537,0.908c-0.234,0.027-0.391,0.115-0.557,0.195
			c-1.119,0.267-3.586,0.158-5.226,0.158c-1.543,0-3.166,0-4.668,0c-3.457,0-6.459,0.148-9.385,0
			c-0.717-0.037-0.831-0.268-1.42-0.554c-0.923-0.446-2.214-0.965-3.043-1.34c0.001-0.024,0.007-0.047,0.05-0.04
			c0.239-0.051,0.297-0.243,0.559-0.275c0.605-0.16,1.156-0.362,1.623-0.631c0.017,0,0.034,0,0.051,0
			c0.179,0.084,0.461-0.089,0.558-0.197c0.101,0,0.203,0,0.304,0c0.026-0.164,0.503,0.022,0.456-0.197
			c0.092-0.072,0.129,0.031,0.305,0c0.041-0.008,0.061-0.032,0.051-0.078c0.17-0.014,0.439,0.053,0.406-0.118
			c0.268,0.035,0.324-0.149,0.71-0.118c0-0.027,0-0.053,0-0.078c0.017,0,0.033,0,0.051,0c0.218,0.049,0.25-0.004,0.507,0
			c0.31-0.078,0.717-0.076,0.965-0.199c0.033,0,0.067,0,0.103,0c0.416-0.058,0.869-0.084,1.217-0.196c0.051,0,0.102,0,0.15,0
			c0.502-0.099,1.225-0.021,1.676-0.158c1.451-0.034,2.557-0.161,4.16-0.118c0.403,0.08,0.688,0.063,1.217,0.08
			c0.358-0.016,0.586,0.069,0.965,0.038c0.434,0.124,1.096,0.069,1.572,0.158c0.6,0.087,1.182,0.187,1.826,0.237
			c0.188,0.129,0.625,0.064,0.86,0.158c0.035,0,0.065,0,0.104,0c0.246,0.082,0.526,0.141,0.809,0.196c0.035,0,0.068,0,0.104,0
			c0.389,0.119,0.785,0.231,1.217,0.313c0.191-0.041,0.146,0.1,0.304,0.08c0.057-0.037,0.019-0.146,0.153-0.118
			c-0.026,0.03-0.053,0.065-0.051,0.118c0.051,0,0.1,0,0.152,0c0.002,0.051,0.064,0.056,0.051,0.119
			c0.182-0.025,0.285,0.016,0.303,0.116c0.078-0.006,0.189,0.015,0.205-0.038C47.88,23.391,47.899,23.391,47.917,23.391z"/>
		<path fill="#7BB241" d="M51.009,24.967c0,0.014,0,0.026,0,0.039c-0.467,0.071-0.842,0.212-1.168,0.395
			c-0.25,0.029-0.336,0.186-0.608,0.197c-0.151,0.063-0.368,0.079-0.455,0.197c-0.016,0-0.034,0-0.051,0
			c-0.156-0.029-0.099,0.109-0.254,0.08C49.25,25.518,50.055,25.184,51.009,24.967z"/>
		<path fill="#8AC249" d="M47.917,26.07c0.166-0.08,0.322-0.168,0.557-0.195c0.156,0.029,0.098-0.109,0.254-0.08
			c-0.232,0.135-0.508,0.235-0.811,0.314C47.917,26.098,47.917,26.083,47.917,26.07z"/>
		<path fill="#7BB241" d="M47.917,26.07c0,0.013,0,0.025,0,0.039c-0.16,0.1-0.367,0.162-0.662,0.158
			c-6.188,0.053-12.67-0.104-18.769,0.08c0.14,0.035,0.216,0.118,0.354,0.155c0.591,0.382,1.3,0.673,1.979,0.986
			c0.019,0,0.033,0,0.052,0c0.215,0.177,0.528,0.271,0.811,0.395c0.225,0.022,0.324,0.144,0.508,0.197
			c0.16,0.166,0.461,0.22,0.711,0.315c0.016,0,0.033,0,0.051,0c0.682,0.336,1.49,0.576,2.334,0.789c0.017,0,0.031,0,0.051,0
			c0.224,0.102,0.49,0.168,0.812,0.196c0.017,0,0.033,0,0.052,0c0.145,0.071,0.313,0.125,0.559,0.119
			c0.26-0.032,0.332,0.082,0.559,0.077c0.279,0.084,0.605,0.131,1.012,0.117c0.068,0,0.137,0,0.205,0
			c0.187,0.117,0.586,0.07,0.912,0.08c-0.047,0.205-0.379,0.232-0.559,0.315c-2.945,1.369-6.037,2.814-9.537,3.823
			c-0.217,0.064-0.59,0.023-0.658,0.277c-8.335,0-16.673,0-25.008,0c0-0.92,0-1.84,0-2.76c0.034,0,0.068,0,0.101,0
			c0.086-1.645,0.084-3.563,0-5.207c0.084-0.08,0.232-0.107,0.255-0.238c0.016,0,0.032,0,0.05,0c0.28,0,0.958-0.672,1.268-0.786
			c0.051-0.021,0.16,0.024,0.203,0c0.135-0.076,0.142-0.228,0.304-0.275c0.497-0.151,0.916-0.425,1.269-0.632
			c0.017,0,0.034,0,0.051,0c0.145,0.072,0.368-0.133,0.508-0.198c0.017,0,0.032,0,0.051,0c0.073,0.095,0.134-0.153,0.355-0.077
			c0.023-0.047,0.054-0.09,0.101-0.117c0.019,0,0.034,0,0.05,0c0.85-0.264,2.153-0.605,3.349-0.83
			c1.021-0.021,2.263-0.211,3.399-0.274c0.276,0.171,0.632-0.069,0.962-0.078c0.266-0.009,0.434,0.089,0.711,0.116
			c0.476,0.048,0.973-0.002,1.42-0.038c0.017,0,0.034,0,0.051,0c0.03,0.081,0.079,0.147,0.253,0.118
			c1.198,0.16,2.275,0.413,3.399,0.631c0.362,0.114,0.878,0.314,1.167,0.355c0.016,0,0.034,0,0.05,0
			c0.072,0.009,0.057,0.086,0.103,0.117c0.215-0.074,0.262,0.186,0.354,0.077c0.018,0,0.034,0,0.052,0
			c0.17,0.118,0.345,0.232,0.659,0.238c0.829,0.375,2.12,0.894,3.043,1.34c0.589,0.286,0.704,0.517,1.42,0.554
			c2.926,0.148,5.928,0,9.385,0c1.502,0,3.125,0,4.668,0C44.332,26.229,46.796,26.337,47.917,26.07z"/>
		<path fill="#9BCB64" d="M31.682,27.885c-0.281-0.121-0.597-0.218-0.812-0.395C31.137,27.626,31.464,27.711,31.682,27.885z"/>
		<path fill="#8AC249" d="M39.444,29.777c0.086-0.002,0.132,0.029,0.152,0.08c-3.349,1.549-6.675,3.119-10.603,4.22
			c7.219,0.065,14.795,0.065,22.016,0c-0.008,0.006,0.007,0.034,0,0.038c-0.411,0.215-1.893,0.078-2.739,0.078
			c-6.44,0-13.272,0-19.58,0c0.067-0.254,0.44-0.211,0.658-0.276c3.5-1.009,6.592-2.454,9.536-3.823
			C39.065,30.011,39.397,29.982,39.444,29.777z"/>
		<path fill="#8AC249" d="M48.778,25.795c0.087-0.118,0.304-0.134,0.455-0.197C49.119,25.689,48.951,25.745,48.778,25.795z"/>
		<path fill="#8AC249" d="M49.841,25.4c0.326-0.184,0.701-0.323,1.168-0.396c0,0.013,0,0.026,0,0.038
			C50.524,25.088,50.253,25.299,49.841,25.4z"/>
		<path fill="#9BCB64" d="M38.328,29.698c-0.406,0.013-0.732-0.034-1.013-0.118C37.673,29.602,38,29.65,38.328,29.698z"/>
		<path fill="#9BCB64" d="M36.755,29.503c-0.246,0.006-0.414-0.048-0.559-0.119C36.399,29.412,36.589,29.445,36.755,29.503z"/>
		<path fill="#9BCB64" d="M36.147,29.384c-0.319-0.028-0.588-0.096-0.812-0.196C35.619,29.241,35.897,29.302,36.147,29.384z"/>
		<path fill="#9BCB64" d="M35.287,29.188c-0.845-0.213-1.652-0.453-2.334-0.789C33.69,28.691,34.509,28.92,35.287,29.188z"/>
		<path fill="#9BCB64" d="M32.901,28.398c-0.25-0.098-0.551-0.15-0.711-0.316C32.412,28.2,32.71,28.254,32.901,28.398z"/>
		<path fill="#9BCB64" d="M30.821,27.49c-0.68-0.313-1.389-0.604-1.979-0.986C29.485,26.846,30.194,27.136,30.821,27.49z"/>
		<path fill="#8AC249" d="M39.798,21.97c0.07,0.089,0.353,0.015,0.507,0.039c0.123,0.023,0.368-0.049,0.405,0.038
			c-0.151,0-0.303,0-0.455,0c-0.379,0.031-0.604-0.054-0.965-0.038c-0.069-0.116-0.485,0.035-0.557-0.079c0.1,0,0.203,0,0.303,0
			C39.346,21.898,39.512,21.982,39.798,21.97z"/>
		<path fill="#7BB241" d="M40.255,22.047c0.152,0,0.304,0,0.455,0c0.549,0.023,1.066,0.067,1.523,0.158c-0.137,0-0.271,0-0.406,0
			C41.352,22.116,40.69,22.171,40.255,22.047z"/>
		<path fill="#7BB241" d="M23.261,19.249c0.408,0.025,0.947-0.053,1.268,0.04C24.124,19.261,23.583,19.339,23.261,19.249z"/>
	</g>
</g>
</svg>
