<?xml version="1.0" encoding="utf-8"?>
<!-- Generator: Adobe Illustrator 13.0.1, SVG Export Plug-In . SVG Version: 6.00 Build 14948)  -->
<!DOCTYPE svg PUBLIC "-//W3C//DTD SVG 1.1//EN" "http://www.w3.org/Graphics/SVG/1.1/DTD/svg11.dtd">
<svg version="1.1" id="Слой_1" xmlns="http://www.w3.org/2000/svg" xmlns:xlink="http://www.w3.org/1999/xlink" x="0px" y="0px"
	 width="29.723px" height="23.648px" viewBox="0 0 29.723 23.648" style="enable-background:new 0 0 29.723 23.648;"
	 xml:space="preserve">
<g>
	<g>
		<path style="fill-rule:evenodd;clip-rule:evenodd;fill:#CCCCCC;" d="M21.484,2.518c1.34,0,2.462,0,3.679,0
			c1.989,0,3.878-0.192,4.382,1.409c0.349,1.102,0.079,2.93,0.079,4.226c0,2.753,0,5.434,0,8.451c0,1.391,0.176,3.395-0.157,4.07
			c-0.382,0.777-1.555,1.016-2.738,1.096c-1.229,0.082-2.725-0.232-3.835,0c-0.623,0.13-1.319,0.77-2.113,1.096
			c-0.92,0.377-2.036,0.781-3.286,0.782c-2.173,0.003-3.792-0.971-5.322-1.878c-2.504,0-5.527,0-8.295,0
			c-1.804,0-3.183-0.04-3.679-1.252c-0.319-0.785-0.156-2.722-0.156-4.148c0-2.914,0-5.519,0-8.53c0-2.883-0.361-5.497,2.583-5.322
			c0.181-0.263,0.026-0.859,0.078-1.252c1.174,0,2.348,0,3.521,0c0.162,0.281,0.04,0.846,0.079,1.252c1.903,0,3.808,0,5.713,0
			c0.627-0.617,0.249-2.132,1.486-2.426c0.871-0.208,2.235,0,3.678,0c1.049,0,2.71-0.241,3.364,0.235
			C21.304,0.878,20.968,1.942,21.484,2.518z M14.754,7.84c-2.109,0.793-4.369,3.037-4.696,5.948
			c-0.331,2.961,0.83,4.979,2.192,6.339c1.437,1.434,3.443,2.388,6.104,2.112c3.47-0.357,6.596-3.391,6.574-7.512
			c-0.017-3.027-1.896-5.374-3.757-6.418c-1.061-0.594-2.793-1.017-4.382-0.861C16.006,7.525,15.368,7.609,14.754,7.84z
			 M2.937,12.536c0,0.717,0,1.778,0,2.738c0,2.053-0.427,5.217,1.565,4.539c1.083-0.367,0.704-3.367,0.704-4.93
			c0-1.773,0.32-4.685-0.313-5.322C4.563,9.229,3.972,9.324,3.955,9.327C2.691,9.514,2.937,11.114,2.937,12.536z"/>
		<path style="fill-rule:evenodd;clip-rule:evenodd;fill:#CCCCCC;" d="M16.79,9.561c4.387-0.544,7.815,4.257,5.008,8.295
			c-0.442,0.637-1.44,1.468-2.269,1.801c-3.271,1.313-7.426-0.904-7.357-5.009c0.028-1.665,0.745-2.81,1.409-3.521
			C14.266,10.392,15.372,9.737,16.79,9.561z M19.293,17.778c2.364,0.049,3.525-3.021,2.113-4.852
			C21.739,15.397,20.715,16.841,19.293,17.778z"/>
	</g>
</g>
</svg>
